<?xml version="1.0" standalone="no"?><!DOCTYPE svg PUBLIC "-//W3C//DTD SVG 1.1//EN" "http://www.w3.org/Graphics/SVG/1.1/DTD/svg11.dtd"><svg t="1699955300483" class="icon" viewBox="0 0 1024 1024" version="1.1" xmlns="http://www.w3.org/2000/svg" p-id="7039" xmlns:xlink="http://www.w3.org/1999/xlink" width="64" height="64"><path d="M213.333333 853.333333c-23.466667 0-42.666667-19.2-42.666666-42.666666v-170.666667c0-23.466667 19.2-42.666667 42.666666-42.666667s42.666667 19.2 42.666667 42.666667v170.666667c0 23.466667-19.2 42.666667-42.666667 42.666666zM411.733333 853.333333c-23.466667 0-42.666667-19.2-42.666666-42.666666V490.666667c0-23.466667 19.2-42.666667 42.666666-42.666667s42.666667 19.2 42.666667 42.666667v320c0 23.466667-19.2 42.666667-42.666667 42.666666zM612.266667 853.333333c-23.466667 0-42.666667-19.2-42.666667-42.666666V576c0-23.466667 19.2-42.666667 42.666667-42.666667s42.666667 19.2 42.666666 42.666667v234.666667c0 23.466667-19.2 42.666667-42.666666 42.666666zM810.666667 853.333333c-23.466667 0-42.666667-19.2-42.666667-42.666666V512c0-23.466667 19.2-42.666667 42.666667-42.666667s42.666667 19.2 42.666666 42.666667v298.666667c0 23.466667-19.2 42.666667-42.666666 42.666666zM213.333333 512c-10.666667 0-23.466667-4.266667-32-14.933333-14.933333-17.066667-14.933333-44.8 2.133334-59.733334l234.666666-213.333333c17.066667-14.933333 44.8-14.933333 59.733334 2.133333 14.933333 17.066667 14.933333 44.8-2.133334 59.733334l-234.666666 213.333333c-6.4 8.533333-17.066667 12.8-27.733334 12.8z" p-id="7040" fill="#2c2c2c"></path><path d="M618.666667 448c-10.666667 0-19.2-4.266667-27.733334-10.666667l-170.666666-149.333333c-17.066667-14.933333-19.2-42.666667-4.266667-59.733333s42.666667-19.2 59.733333-4.266667l170.666667 149.333333c17.066667 14.933333 19.2 42.666667 4.266667 59.733334-8.533333 10.666667-19.2 14.933333-32 14.933333z" p-id="7041" fill="#2c2c2c"></path><path d="M618.666667 448c-10.666667 0-21.333333-4.266667-29.866667-12.8-17.066667-17.066667-17.066667-42.666667 0-59.733333l192-192c17.066667-17.066667 42.666667-17.066667 59.733333 0 17.066667 17.066667 17.066667 42.666667 0 59.733333l-192 192c-8.533333 8.533333-19.2 12.8-29.866666 12.8z" p-id="7042" fill="#2c2c2c"></path><path d="M810.666667 256h-128c-23.466667 0-42.666667-19.2-42.666667-42.666667s19.2-42.666667 42.666667-42.666666h128c23.466667 0 42.666667 19.2 42.666666 42.666666s-19.2 42.666667-42.666666 42.666667z" p-id="7043" fill="#2c2c2c"></path><path d="M810.666667 384c-23.466667 0-42.666667-19.2-42.666667-42.666667v-128c0-23.466667 19.2-42.666667 42.666667-42.666666s42.666667 19.2 42.666666 42.666666v128c0 23.466667-19.2 42.666667-42.666666 42.666667z" p-id="7044" fill="#2c2c2c"></path></svg>