<svg xmlns="http://www.w3.org/2000/svg" xmlns:xlink="http://www.w3.org/1999/xlink" width="16" height="16" viewBox="0 0 16 16"><defs><style>.a{fill:#fff;}.b{clip-path:url(#a);}.c{fill:none;stroke:#222;stroke-linejoin:round;}</style><clipPath id="a"><rect class="a" width="16" height="16" transform="translate(32 181)"/></clipPath></defs><g class="b" transform="translate(-32 -181)"><g transform="translate(28.977 177.977)"><path class="c" d="M9.349,6H6.558A.558.558,0,0,0,6,6.558V9.349a.558.558,0,0,0,.558.558H9.349a.558.558,0,0,0,.558-.558V6.558A.558.558,0,0,0,9.349,6Z" transform="translate(0 0)"/><path class="c" d="M9.349,28H6.558A.558.558,0,0,0,6,28.558v2.791a.558.558,0,0,0,.558.558H9.349a.558.558,0,0,0,.558-.558V28.558A.558.558,0,0,0,9.349,28Z" transform="translate(0 -15.861)"/><path class="c" d="M29.953,9.907A1.953,1.953,0,1,0,28,7.953,1.953,1.953,0,0,0,29.953,9.907Z" transform="translate(-15.861 0)"/><path class="c" d="M31.349,28H28.558a.558.558,0,0,0-.558.558v2.791a.558.558,0,0,0,.558.558h2.791a.558.558,0,0,0,.558-.558V28.558A.558.558,0,0,0,31.349,28Z" transform="translate(-15.861 -15.861)"/></g></g></svg>