<svg xmlns="http://www.w3.org/2000/svg" xmlns:xlink="http://www.w3.org/1999/xlink" width="24" height="24" viewBox="0 0 24 24"><defs><style>.a{fill:#fff;}.b{clip-path:url(#a);}.c{fill:none;stroke:#fff;stroke-linejoin:round;stroke-width:1.5px;}</style><clipPath id="a"><rect class="a" width="24" height="24" transform="translate(620 225)"/></clipPath></defs><g class="b" transform="translate(-620 -225)"><g transform="translate(617 222)"><path class="c" d="M11.9,6H6.983A.983.983,0,0,0,6,6.983V11.9a.983.983,0,0,0,.983.983H11.9a.983.983,0,0,0,.983-.983V6.983A.983.983,0,0,0,11.9,6Z"/><path class="c" d="M11.9,28H6.983A.983.983,0,0,0,6,28.983V33.9a.983.983,0,0,0,.983.983H11.9a.983.983,0,0,0,.983-.983V28.983A.983.983,0,0,0,11.9,28Z" transform="translate(0 -11.182)"/><path class="c" d="M31.442,12.884A3.442,3.442,0,1,0,28,9.442,3.442,3.442,0,0,0,31.442,12.884Z" transform="translate(-11.182)"/><path class="c" d="M33.9,28H28.983a.983.983,0,0,0-.983.983V33.9a.983.983,0,0,0,.983.983H33.9a.983.983,0,0,0,.983-.983V28.983A.983.983,0,0,0,33.9,28Z" transform="translate(-11.182 -11.182)"/></g></g></svg>