<svg xmlns="http://www.w3.org/2000/svg" xmlns:xlink="http://www.w3.org/1999/xlink" width="24" height="24" viewBox="0 0 24 24"><defs><style>.a{fill:#c9c9c9;}.b{clip-path:url(#a);}.c,.d{fill:none;stroke:#333;stroke-linejoin:round;stroke-width:1.5px;}.d{stroke-linecap:round;}</style><clipPath id="a"><rect class="a" width="24" height="24" transform="translate(0 0.378)"/></clipPath></defs><g class="b" transform="translate(0 -0.378)"><g transform="translate(4.098 4.892)"><path class="c" d="M5,6.832A.832.832,0,0,1,5.832,6h4.991L12.9,8.5h7.07a.832.832,0,0,1,.832.832V20.14a.832.832,0,0,1-.832.832H5.832A.832.832,0,0,1,5,20.14Z" transform="translate(-5 -6)"/><path class="d" d="M28,22l2.079,2.079L28,26.159" transform="translate(-18.435 -15.346)"/><path class="d" d="M17.079,22,15,24.079l2.079,2.079" transform="translate(-10.841 -15.346)"/></g></g></svg>