<svg xmlns="http://www.w3.org/2000/svg" xmlns:xlink="http://www.w3.org/1999/xlink" width="16" height="16" viewBox="0 0 16 16"><defs><style>.a{fill:#fff;}.b{clip-path:url(#a);}.c,.d{fill:none;stroke:#fdbb51;stroke-linejoin:round;}.c{stroke-linecap:round;}</style><clipPath id="a"><rect class="a" width="16" height="16" transform="translate(32 181)"/></clipPath></defs><g class="b" transform="translate(-32 -181)"><g transform="translate(29.147 178.147)"><path class="c" d="M13,7.289V5.866A.866.866,0,0,1,13.866,5h7.508a.866.866,0,0,1,.866.866v7.508a.866.866,0,0,1-.866.866H19.936" transform="translate(-5.536 0)"/><path class="d" d="M13.375,13H5.866A.866.866,0,0,0,5,13.866v7.508a.866.866,0,0,0,.866.866h7.508a.866.866,0,0,0,.866-.866V13.866A.866.866,0,0,0,13.375,13Z" transform="translate(0 -5.536)"/></g></g></svg>