<svg xmlns="http://www.w3.org/2000/svg" xmlns:xlink="http://www.w3.org/1999/xlink" width="24" height="24" viewBox="0 0 24 24"><defs><style>.a{fill:#c9c9c9;}.b{clip-path:url(#a);}.c,.d{fill:none;stroke:#333;stroke-linejoin:round;stroke-width:1.5px;}.c{stroke-linecap:round;}</style><clipPath id="a"><rect class="a" width="24" height="24" transform="translate(0.37 0.37)"/></clipPath></defs><g class="b" transform="translate(-0.37 -0.37)"><g transform="translate(4.358 4.358)"><path class="c" d="M13,8.134V6.186A1.186,1.186,0,0,1,14.186,5H24.466a1.186,1.186,0,0,1,1.186,1.186V16.466a1.186,1.186,0,0,1-1.186,1.186H22.5" transform="translate(-9.626 -5)"/><path class="d" d="M16.466,13H6.186A1.186,1.186,0,0,0,5,14.186V24.466a1.186,1.186,0,0,0,1.186,1.186H16.466a1.186,1.186,0,0,0,1.186-1.186V14.186A1.186,1.186,0,0,0,16.466,13Z" transform="translate(-5 -9.626)"/></g></g></svg>