<svg xmlns="http://www.w3.org/2000/svg" xmlns:xlink="http://www.w3.org/1999/xlink" width="24" height="24" viewBox="0 0 24 24"><defs><style>.a{fill:#fff;}.b{clip-path:url(#a);}.c{clip-path:url(#b);}.d,.e{fill:none;stroke:#fff;stroke-linejoin:round;stroke-width:1.5px;}.d{stroke-linecap:round;}</style><clipPath id="a"><rect class="a" width="24" height="24" transform="translate(32 181)"/></clipPath><clipPath id="b"><rect class="a" width="21" height="21"/></clipPath></defs><g class="b" transform="translate(-32 -181)"><g class="c" transform="translate(33.5 182.5)"><g transform="translate(1.948 1.948)"><path class="d" d="M13,8.345V6.266A1.266,1.266,0,0,1,14.266,5H25.237A1.266,1.266,0,0,1,26.5,6.266V17.237A1.266,1.266,0,0,1,25.237,18.5h-2.1" transform="translate(-9.399 -5)"/><path class="e" d="M17.237,13H6.266A1.266,1.266,0,0,0,5,14.266V25.237A1.266,1.266,0,0,0,6.266,26.5H17.237A1.266,1.266,0,0,0,18.5,25.237V14.266A1.266,1.266,0,0,0,17.237,13Z" transform="translate(-5 -9.399)"/></g></g></g></svg>