<svg xmlns="http://www.w3.org/2000/svg" xmlns:xlink="http://www.w3.org/1999/xlink" width="24" height="24" viewBox="0 0 24 24"><defs><style>.a{fill:#c9c9c9;}.b{clip-path:url(#a);}.c{fill:none;stroke:#222;stroke-linecap:round;stroke-linejoin:round;stroke-width:1.5px;}</style><clipPath id="a"><rect class="a" width="24" height="24" transform="translate(0 0.02)"/></clipPath></defs><g class="b" transform="translate(0 -0.02)"><g transform="translate(1.953 1.973)"><path class="c" d="M13.071,4.809a6.045,6.045,0,0,1,3.024,5.238M13.071,4.809V7.024m0-2.215h2.215m0,8.262a6.045,6.045,0,0,1-5.238,3.024m5.238-3.024H13.071m2.215,0v2.215m-8.262,0A6.045,6.045,0,0,1,4,10.047m3.024,5.238V13.071m0,2.215H4.809m0-8.262A6.045,6.045,0,0,1,10.047,4M4.809,7.024H7.024m-2.215,0V4.809" transform="translate(0 0)"/><path class="c" d="M29.238,34A6.045,6.045,0,0,1,24,37.024M29.238,34H27.024m2.215,0v2.215" transform="translate(-13.953 -20.929)"/><path class="c" d="M7.024,29.238A6.045,6.045,0,0,1,4,24m3.024,5.238V27.024m0,2.215H4.809" transform="translate(0 -13.953)"/><path class="c" d="M6.676,7.024A6.045,6.045,0,0,1,11.914,4M6.676,7.024H8.89m-2.215,0V4.809" transform="translate(-1.867 0)"/><path class="c" d="M34,6.676a6.045,6.045,0,0,1,3.024,5.238M34,6.676V8.89m0-2.215h2.215" transform="translate(-20.929 -1.867)"/></g></g></svg>