<svg xmlns="http://www.w3.org/2000/svg" xmlns:xlink="http://www.w3.org/1999/xlink" width="24" height="24" viewBox="0 0 24 24">
  <defs>
    <clipPath id="clip-path">
      <rect id="矩形_6064" data-name="矩形 6064" width="24" height="24" transform="translate(1496 839)" fill="#fff"/>
    </clipPath>
  </defs>
  <g id="数据服务" transform="translate(-1496 -839)" clip-path="url(#clip-path)">
    <g id="组_16047" data-name="组 16047" transform="translate(1494.168 835.968)">
      <path id="路径_24763" data-name="路径 24763" d="M162.909,559.066a.521.521,0,0,1,.521-.521h2.6a.521.521,0,0,1,.521.521v5.727a.521.521,0,0,1-.521.521h-2.6a.521.521,0,0,1-.521-.521Z" transform="translate(-156.887 -542.993)" fill="#247ade"/>
      <path id="路径_24764" data-name="路径 24764" d="M418.909,698.7a.521.521,0,0,1,.521-.521h2.6a.521.521,0,0,1,.521.521v2.6a.521.521,0,0,1-.521.521h-2.6a.521.521,0,0,1-.521-.521Z" transform="translate(-407.159 -679.505)" fill="#69cb91"/>
      <path id="路径_24765" data-name="路径 24765" d="M678.554,465.975a.521.521,0,0,0-.521-.521h-2.6a.521.521,0,0,0-.521.521v7.81a.521.521,0,0,0,.521.521h2.6a.521.521,0,0,0,.521-.521Z" transform="translate(-657.433 -451.985)" fill="#a0bff7"/>
      <path id="路径_24766" data-name="路径 24766" d="M177.151,210.455l-2.592-.309a.362.362,0,0,1-.34-.4.347.347,0,0,1,.153-.234.435.435,0,0,1,.294-.069l3.542.422a.363.363,0,0,1,.34.4l-.475,3.145a.347.347,0,0,1-.153.234.435.435,0,0,1-.294.069.363.363,0,0,1-.34-.4l.348-2.3-3.6,2.439a.435.435,0,0,1-.294.069.41.41,0,0,1-.286-.166l-1.807-2.624-8.079,5.407a.431.431,0,0,1-.239.071.377.377,0,0,1-.4-.352.338.338,0,0,1,.158-.281h0l8.429-5.641.032-.019a.427.427,0,0,1,.546.117l1.805,2.621,3.248-2.2Z" transform="translate(-156.91 -201.702)" fill="#247ade"/>
    </g>
  </g>
</svg>
