<svg xmlns="http://www.w3.org/2000/svg" xmlns:xlink="http://www.w3.org/1999/xlink" width="24" height="24" viewBox="0 0 24 24"><defs><style>.a{fill:#fff;}.b{clip-path:url(#a);}.c{clip-path:url(#b);}.d{fill:none;stroke:#fff;stroke-linecap:round;stroke-linejoin:round;stroke-width:1.5px;}</style><clipPath id="a"><rect class="a" width="24" height="24" transform="translate(320 222)"/></clipPath><clipPath id="b"><rect class="a" width="22" height="22" transform="translate(318.866 221.636)"/></clipPath></defs><g class="b" transform="translate(-320 -222)"><g class="c" transform="translate(2.134 1.364)"><g transform="translate(320.541 223.652)"><path class="d" d="M21.49,22.191a4.448,4.448,0,0,0,1.682-4.982,4.336,4.336,0,0,0-4.321-2.862H17.73A7.117,7.117,0,1,0,5.507,20.833" transform="translate(-3.72 -9)"/><g transform="translate(4.829 9.521)"><path class="d" d="M5.474,8,4,9.474l1.474,1.474" transform="translate(-4 -8)"/><path class="d" d="M38,28l1.474,1.474L38,30.949" transform="translate(-29.645 -23.085)"/><path class="d" d="M4,14h9.83" transform="translate(-4 -12.526)"/><path class="d" d="M4,34h9.83" transform="translate(-4 -27.611)"/></g></g></g></g></svg>