<svg xmlns="http://www.w3.org/2000/svg" xmlns:xlink="http://www.w3.org/1999/xlink" width="16" height="16" viewBox="0 0 16 16"><defs><style>.a{fill:#fff;}.b{clip-path:url(#a);}.c{clip-path:url(#b);}.d{fill:none;stroke:#5d70f7;stroke-linecap:round;stroke-linejoin:round;}</style><clipPath id="a"><rect class="a" width="16" height="16" transform="translate(32 181)"/></clipPath><clipPath id="b"><rect class="a" width="14" height="14" transform="translate(319.717 221.717)"/></clipPath></defs><g class="b" transform="translate(-32 -181)"><g class="c" transform="translate(-286.717 -39.717)"><g transform="translate(316.528 213.997)"><path class="d" d="M15.415,17.681A2.927,2.927,0,0,0,16.521,14.4a2.854,2.854,0,0,0-2.844-1.883H12.94A4.683,4.683,0,1,0,4.9,16.787"/><g transform="translate(6.898 15.266)"><path class="d" d="M4.97,8,4,8.97l.97.97" transform="translate(-4 -8)"/><path class="d" d="M38,28l.97.97-.97.97" transform="translate(-32.501 -24.765)"/><path class="d" d="M4,14h6.469" transform="translate(-4 -13.03)"/><path class="d" d="M4,34h6.469" transform="translate(-4 -29.795)"/></g></g></g></g></svg>