<svg xmlns="http://www.w3.org/2000/svg" xmlns:xlink="http://www.w3.org/1999/xlink" width="16" height="16" viewBox="0 0 16 16"><defs><style>.a{fill:#fff;}.b{clip-path:url(#a);}.c{clip-path:url(#b);}.d{fill:none;stroke:#ffa412;stroke-linecap:round;stroke-linejoin:round;}</style><clipPath id="a"><rect class="a" width="16" height="16" transform="translate(4 4)"/></clipPath><clipPath id="b"><rect class="a" width="16" height="16" transform="translate(934 222.904)"/></clipPath></defs><g transform="translate(-233 -612)"><g class="b" transform="translate(229 608)"><g class="c" transform="translate(-930 -218.904)"><g transform="translate(935.482 225.472)"><path class="d" d="M20,9h7.967" transform="translate(-14.93 -9)"/><path class="d" d="M20,19h7.967" transform="translate(-14.93 -15.379)"/><path class="d" d="M20,29h7.967" transform="translate(-14.93 -21.757)"/><path class="d" d="M20,39h7.967" transform="translate(-14.93 -28.136)"/><path class="d" d="M6,29H8.173v1.086L6,32.259v.362H8.173" transform="translate(-6 -21.757)"/><path class="d" d="M7,9.724,7.724,9v3.621m0,0H7m.724,0h.724" transform="translate(-6.638 -9)"/></g></g></g></g></svg>