<svg xmlns="http://www.w3.org/2000/svg" xmlns:xlink="http://www.w3.org/1999/xlink" width="36" height="36" viewBox="0 0 36 36"><defs><style>.a{fill:#fff;}.b{fill:#5d70f7;}.c{clip-path:url(#a);}.d,.e{fill:none;stroke:#fff;stroke-width:1.5px;}.e{stroke-linecap:round;stroke-linejoin:round;}</style><clipPath id="a"><rect class="a" width="24" height="24" transform="translate(934 223)"/></clipPath></defs><g transform="translate(-666 -468)"><rect class="b" width="36" height="36" rx="8" transform="translate(666 468)"/><g class="c" transform="translate(-262 251)"><g transform="translate(932.718 222.5)"><path class="d" d="M13.5,39.371a7.412,7.412,0,0,0,9.154,0" transform="translate(-4.795 -19.953)"/><path class="d" d="M12.231,9.747A7.419,7.419,0,0,0,7.4,19.229" transform="translate(-1.128 -3.242)"/><path class="d" d="M29,9.747a7.419,7.419,0,0,1,4.834,9.482" transform="translate(-13.538 -3.242)"/><path class="e" d="M37.359,33.179A2.181,2.181,0,1,1,35.179,31,2.172,2.172,0,0,1,37.359,33.179Z" transform="translate(-15.795 -15.231)"/><path class="e" d="M9.359,33.179A2.181,2.181,0,1,1,7.179,31,2.172,2.172,0,0,1,9.359,33.179Z" transform="translate(0 -15.231)"/><path class="e" d="M23.359,6.179A2.181,2.181,0,1,1,21.179,4,2.172,2.172,0,0,1,23.359,6.179Z" transform="translate(-7.897)"/></g></g></g></svg>