<svg xmlns="http://www.w3.org/2000/svg" xmlns:xlink="http://www.w3.org/1999/xlink" width="16" height="16" viewBox="0 0 16 16"><defs><style>.a{fill:#fff;}.b{clip-path:url(#a);}.c,.d{fill:none;stroke:#3246d2;}.d{stroke-linecap:round;stroke-linejoin:round;}</style><clipPath id="a"><rect class="a" width="16" height="16" transform="translate(0 0.227)"/></clipPath></defs><g transform="translate(-233 -612)"><g class="b" transform="translate(233 611.773)"><g transform="translate(1.246 1.295)"><path class="c" d="M13.5,39.371a6.044,6.044,0,0,0,7.465,0" transform="translate(-10.479 -26.798)"/><path class="c" d="M11.266,9.747a6.05,6.05,0,0,0-3.942,7.732" transform="translate(-6.289 -7.704)"/><path class="c" d="M29,9.747a6.05,6.05,0,0,1,3.942,7.732" transform="translate(-20.469 -7.704)"/><path class="d" d="M36.555,32.777A1.778,1.778,0,1,1,34.777,31,1.771,1.771,0,0,1,36.555,32.777Z" transform="translate(-23.047 -21.402)"/><path class="d" d="M8.555,32.777A1.778,1.778,0,1,1,6.777,31,1.771,1.771,0,0,1,8.555,32.777Z" transform="translate(-5 -21.402)"/><path class="d" d="M22.555,5.777A1.778,1.778,0,1,1,20.777,4,1.771,1.771,0,0,1,22.555,5.777Z" transform="translate(-14.024 -4)"/></g></g></g></svg>