<svg xmlns="http://www.w3.org/2000/svg" xmlns:xlink="http://www.w3.org/1999/xlink" width="16" height="16" viewBox="0 0 16 16"><defs><style>.a{fill:#fff;}.b{clip-path:url(#a);}.c{fill:#999;fill-rule:evenodd;}</style><clipPath id="a"><rect class="a" width="16" height="16" transform="translate(4 180)"/></clipPath></defs><g class="b" transform="translate(-4 -180)"><g transform="translate(-2.738 176.824)"><path class="c" d="M13.3,7.15A1.15,1.15,0,1,1,12.15,6,1.15,1.15,0,0,1,13.3,7.15Zm-1.15,5.176A1.15,1.15,0,1,0,11,11.176,1.15,1.15,0,0,0,12.15,12.326Zm0,4.026A1.15,1.15,0,1,0,11,15.2,1.15,1.15,0,0,0,12.15,16.352Z"/><path class="c" d="M31.3,7.15A1.15,1.15,0,1,1,30.15,6,1.15,1.15,0,0,1,31.3,7.15Zm-1.15,5.176A1.15,1.15,0,1,0,29,11.176,1.15,1.15,0,0,0,30.15,12.326Zm0,4.026A1.15,1.15,0,1,0,29,15.2,1.15,1.15,0,0,0,30.15,16.352Z" transform="translate(-12.824)"/></g></g></svg>