<svg xmlns="http://www.w3.org/2000/svg" xmlns:xlink="http://www.w3.org/1999/xlink" width="24" height="24" viewBox="0 0 24 24"><defs><style>.a{fill:#fff;}.b{clip-path:url(#a);}.c{fill:none;stroke:#fff;stroke-linejoin:round;stroke-width:1.5px;}</style><clipPath id="a"><rect class="a" width="24" height="24" transform="translate(32 181)"/></clipPath></defs><g class="b" transform="translate(-32 -181)"><g transform="translate(35.092 184.092)"><path class="c" d="M11.939,6H6.99A.99.99,0,0,0,6,6.99v4.949a.99.99,0,0,0,.99.99h4.949a.99.99,0,0,0,.99-.99V6.99A.99.99,0,0,0,11.939,6Z" transform="translate(-6 -6)"/><path class="c" d="M11.939,28H6.99a.99.99,0,0,0-.99.99v4.949a.99.99,0,0,0,.99.99h4.949a.99.99,0,0,0,.99-.99V28.99A.99.99,0,0,0,11.939,28Z" transform="translate(-6 -17.112)"/><path class="c" d="M33.939,6H28.99a.99.99,0,0,0-.99.99v4.949a.99.99,0,0,0,.99.99h4.949a.99.99,0,0,0,.99-.99V6.99A.99.99,0,0,0,33.939,6Z" transform="translate(-17.112 -6)"/><path class="c" d="M33.939,28H28.99a.99.99,0,0,0-.99.99v4.949a.99.99,0,0,0,.99.99h4.949a.99.99,0,0,0,.99-.99V28.99A.99.99,0,0,0,33.939,28Z" transform="translate(-17.112 -17.112)"/></g></g></svg>