<svg xmlns="http://www.w3.org/2000/svg" xmlns:xlink="http://www.w3.org/1999/xlink" width="16" height="16" viewBox="0 0 16 16"><defs><style>.a{fill:#fff;}.b{clip-path:url(#a);}.c{fill:none;stroke:#5d70f7;stroke-linejoin:round;}</style><clipPath id="a"><rect class="a" width="16" height="16" transform="translate(32 181)"/></clipPath></defs><g class="b" transform="translate(-32 -181)"><g transform="translate(28.061 177.061)"><path class="c" d="M9.959,6H6.66A.66.66,0,0,0,6,6.66v3.3a.66.66,0,0,0,.66.66h3.3a.66.66,0,0,0,.66-.66V6.66A.66.66,0,0,0,9.959,6Z"/><path class="c" d="M9.959,28H6.66a.66.66,0,0,0-.66.66v3.3a.66.66,0,0,0,.66.66h3.3a.66.66,0,0,0,.66-.66v-3.3A.66.66,0,0,0,9.959,28Z" transform="translate(0 -14.741)"/><path class="c" d="M31.959,6h-3.3a.66.66,0,0,0-.66.66v3.3a.66.66,0,0,0,.66.66h3.3a.66.66,0,0,0,.66-.66V6.66A.66.66,0,0,0,31.959,6Z" transform="translate(-14.741)"/><path class="c" d="M31.959,28h-3.3a.66.66,0,0,0-.66.66v3.3a.66.66,0,0,0,.66.66h3.3a.66.66,0,0,0,.66-.66v-3.3A.66.66,0,0,0,31.959,28Z" transform="translate(-14.741 -14.741)"/></g></g></svg>