<svg xmlns="http://www.w3.org/2000/svg" xmlns:xlink="http://www.w3.org/1999/xlink" width="36" height="36" viewBox="0 0 36 36"><defs><style>.a{fill:#fff;}.b{fill:#64c37d;}.c{clip-path:url(#a);}.d{fill:none;stroke:#fff;stroke-linecap:round;stroke-linejoin:round;stroke-width:1.5px;}</style><clipPath id="a"><rect class="a" width="24" height="24" transform="translate(934 223)"/></clipPath></defs><g transform="translate(-1447 -588)"><rect class="b" width="36" height="36" rx="8" transform="translate(1447 588)"/><g class="c" transform="translate(519 371)"><g transform="translate(930.729 221.912)"><path class="d" d="M21.632,4H8.909A.909.909,0,0,0,8,4.909V21.267a.909.909,0,0,0,.909.909H21.632a.909.909,0,0,0,.909-.909V4.909A.909.909,0,0,0,21.632,4Z"/><path class="d" d="M17,30h6.362" transform="translate(-4.91 -14.186)"/><path class="d" d="M17,36h3.181" transform="translate(-4.91 -17.459)"/><g transform="translate(6.089 -6.911)"><path class="d" d="M31.181,17.182V15H29" transform="translate(-18.819 0)"/><path class="d" d="M6,19l1.879-2.272,1.79,1.091L12.362,15" transform="translate(0)"/></g></g></g></g></svg>