<svg xmlns="http://www.w3.org/2000/svg" xmlns:xlink="http://www.w3.org/1999/xlink" width="36" height="36" viewBox="0 0 36 36"><defs><style>.a{fill:#fff;}.b{fill:#64c37d;}.c{clip-path:url(#a);}.d{fill:none;stroke:#fff;stroke-linecap:round;stroke-linejoin:round;stroke-width:1.5px;}</style><clipPath id="a"><rect class="a" width="24" height="24" transform="translate(934 223)"/></clipPath></defs><g transform="translate(-1220 -588)"><rect class="b" width="36" height="36" rx="8" transform="translate(1220 588)"/><g class="c" transform="translate(292 371)"><path class="d" d="M10.189,6.653,12.842,4m0,0,2.653,2.653M12.842,4v8.842m0,0v8.842m0-8.842h8.842m-8.842,0H4m6.189,6.189,2.653,2.653m0,0,2.653-2.653m3.537-8.842,2.653,2.653m0,0-2.653,2.653M6.653,10.189,4,12.842m0,0,2.653,2.653" transform="translate(933.158 222.158)"/></g></g></svg>