<svg xmlns="http://www.w3.org/2000/svg" width="21.569" height="16.81" viewBox="0 0 21.569 16.81">
  <g id="层" transform="translate(-6.25 -8.201)">
    <path id="路径_24746" data-name="路径 24746" d="M158.076,468.241a.711.711,0,0,0,.072,1.326l9.714,3.152a.719.719,0,0,0,.442,0l10.428-3.389a.712.712,0,0,0,.043-1.339l-10.412-4.133a.714.714,0,0,0-.556.012l-9.731,4.371Z" transform="translate(-151.405 -447.742)" fill="#9ab8ed"/>
    <path id="路径_24747" data-name="路径 24747" d="M158.076,339.775a.711.711,0,0,0,.072,1.326l9.714,3.152a.72.72,0,0,0,.442,0l10.428-3.39a.712.712,0,0,0,.043-1.338l-10.412-4.133a.714.714,0,0,0-.556.012l-9.731,4.371Z" transform="translate(-151.405 -323.209)" fill="#69ca90"/>
    <path id="路径_24748" data-name="路径 24748" d="M158.076,211.31a.711.711,0,0,0,.072,1.326l9.714,3.152a.719.719,0,0,0,.442,0l10.428-3.39a.712.712,0,0,0,.043-1.338l-10.412-4.133a.714.714,0,0,0-.556.012l-9.731,4.371Z" transform="translate(-151.405 -198.675)" fill="#247ade"/>
  </g>
</svg>
