<svg xmlns="http://www.w3.org/2000/svg" xmlns:xlink="http://www.w3.org/1999/xlink" width="16" height="16" viewBox="0 0 16 16"><defs><style>.a{fill:#fff;}.b{clip-path:url(#a);}.c{clip-path:url(#b);}.d,.e{fill:none;stroke:#0fc6c2;stroke-linejoin:round;}.d{stroke-linecap:round;}</style><clipPath id="a"><rect class="a" width="16" height="16" transform="translate(32 181)"/></clipPath><clipPath id="b"><rect class="a" width="14" height="14" transform="translate(319.717 221.717)"/></clipPath></defs><g class="b" transform="translate(-32 -181)"><g class="c" transform="translate(-286.717 -39.717)"><g transform="translate(316.016 218.016)"><path class="d" d="M13,7.23V5.844A.844.844,0,0,1,13.844,5h7.314A.844.844,0,0,1,22,5.844v7.314a.844.844,0,0,1-.844.844h-1.4" transform="translate(-5.6)"/><path class="e" d="M13.158,13H5.844A.844.844,0,0,0,5,13.844v7.314A.844.844,0,0,0,5.844,22h7.314A.844.844,0,0,0,14,21.158V13.844A.844.844,0,0,0,13.158,13Z" transform="translate(0 -5.6)"/></g></g></g></svg>