<svg xmlns="http://www.w3.org/2000/svg" xmlns:xlink="http://www.w3.org/1999/xlink" width="24" height="24" viewBox="0 0 24 24"><defs><style>.a{fill:#fff;}.b{clip-path:url(#a);}.c{fill:none;stroke:#fff;stroke-linecap:round;stroke-linejoin:round;stroke-width:1.5px;}</style><clipPath id="a"><rect class="a" width="24" height="24" transform="translate(1236 223)"/></clipPath></defs><g class="b" transform="translate(-1236 -223)"><g transform="translate(1235.912 222.949)"><path class="c" d="M18.958,8.027H7.309A3.137,3.137,0,0,0,4,11.238a3.171,3.171,0,0,0,3.309,3.248h9.629a3.1,3.1,0,0,1,3.238,3.229,3.113,3.113,0,0,1-3.238,3.243H4.835" transform="translate(0 -2.426)"/><path class="c" d="M5.676,35.993,4.067,37.637l1.609,1.594" transform="translate(-0.04 -19.083)"/><path class="c" d="M38.043,3.954,39.652,5.6,38.043,7.192" transform="translate(-20.276 0)"/></g></g></svg>