<svg xmlns="http://www.w3.org/2000/svg" xmlns:xlink="http://www.w3.org/1999/xlink" width="16" height="16" viewBox="0 0 16 16"><defs><style>.a{fill:#fff;}.b{clip-path:url(#a);}.c{fill:none;stroke:#222;stroke-linecap:round;stroke-linejoin:round;}</style><clipPath id="a"><rect class="a" width="16" height="16" transform="translate(32 181)"/></clipPath></defs><g class="b" transform="translate(-32 -181)"><g transform="translate(30.732 179.772)"><path class="c" d="M13.742,8.027H6.155A2.043,2.043,0,0,0,4,10.118a2.065,2.065,0,0,0,2.155,2.116h6.272a2.019,2.019,0,0,1,2.109,2.1,2.027,2.027,0,0,1-2.109,2.112H4.544" transform="translate(0 -3)"/><path class="c" d="M5.115,35.993,4.067,37.064,5.115,38.1" transform="translate(-0.05 -23.6)"/><path class="c" d="M38.043,3.954,39.09,5.025,38.043,6.063" transform="translate(-25.077 0)"/></g></g></svg>