<svg xmlns="http://www.w3.org/2000/svg" xmlns:xlink="http://www.w3.org/1999/xlink" width="24" height="24" viewBox="0 0 24 24"><defs><style>.a{fill:#fff;}.b{clip-path:url(#a);}.c,.d,.e{fill:none;stroke:#fff;stroke-width:1.5px;}.c,.d{stroke-linejoin:round;}.d,.e{stroke-linecap:round;}</style><clipPath id="a"><rect class="a" width="24" height="24" transform="translate(320 222)"/></clipPath></defs><g class="b" transform="translate(-320 -222)"><g transform="translate(316.88 218.88)"><path class="c" d="M29.653,18H18.507a.507.507,0,0,0-.507.507V29.653a.507.507,0,0,0,.507.507H29.653a.507.507,0,0,0,.507-.507V18.507A.507.507,0,0,0,29.653,18Z" transform="translate(-5.92 -5.92)"/><path class="d" d="M8.011,6H6V8.044"/><path class="d" d="M8.025,28.033H6V26.012" transform="translate(0 -9.873)"/><path class="d" d="M26,6h2.025V8.034" transform="translate(-9.868)"/><path class="d" d="M16.028,6h2.017" transform="translate(-4.947)"/><path class="d" d="M6,16v2.027" transform="translate(0 -4.933)"/><path class="d" d="M30,16v.67" transform="translate(-11.84 -4.933)"/><path class="e" d="M15.992,30h1.017" transform="translate(-4.93 -11.84)"/></g></g></svg>