<svg xmlns="http://www.w3.org/2000/svg" xmlns:xlink="http://www.w3.org/1999/xlink" width="16" height="16" viewBox="0 0 16 16"><defs><style>.a{fill:#fff;}.b{clip-path:url(#a);}.c{fill:#ff9553;}</style><clipPath id="a"><rect class="a" width="16" height="16" transform="translate(32 181)"/></clipPath></defs><g class="b" transform="translate(-32 -181)"><path class="c" d="M12.008,87.544a1.8,1.8,0,0,1-1.768-1.818V83.742a1.8,1.8,0,0,1,1.768-1.825H15.4a1.8,1.8,0,0,1,1.768,1.825v1.983A1.8,1.8,0,0,1,15.4,87.551H12.008Zm0-4.563a.747.747,0,0,0-.733.762v1.983a.752.752,0,0,0,.733.762h3.385a.747.747,0,0,0,.733-.762V83.742a.752.752,0,0,0-.733-.762Zm6.82,4.333a.441.441,0,0,1-.446-.438.482.482,0,0,1,.5-.5,6.154,6.154,0,0,0,.985-.237l.014-.007H19.9a2.339,2.339,0,0,0,.934-.755l.007-.014.022-.014h.007A2.629,2.629,0,0,0,21.595,84c.007-.043.014-.079.022-.115l.007-.036a3.7,3.7,0,0,0,.086-.69,1.3,1.3,0,0,0-.007-.144.7.7,0,0,1-.007-.122l-.525.64a.468.468,0,0,1-.352.18.412.412,0,0,1-.18-.043.434.434,0,0,1-.244-.287.463.463,0,0,1,.086-.352l.007-.007,1.193-1.48a.907.907,0,0,1,.546-.273.758.758,0,0,1,.618.41l1.071,1.545s.172.244-.129.561a.477.477,0,0,1-.323.158.348.348,0,0,1-.237-.093l-.6-.8v.237A4.181,4.181,0,0,1,19.8,87.17a.978.978,0,0,1-.187.057l-.057.014c-.172.043-.331.072-.467.093h-.259Zm-6.41-6.338a.74.74,0,0,1-.625-.424l-1.006-1.588s-.172-.244.129-.553a.491.491,0,0,1,.323-.158.348.348,0,0,1,.237.093l.6.791v-.108a5.81,5.81,0,0,1,.122-1.064A4.323,4.323,0,0,1,13.352,76a3.862,3.862,0,0,1,1.962-1.013,2.814,2.814,0,0,1,.733-.065c.137,0,.216.187.223.367a.517.517,0,0,1-.5.575l-.029.007a4.427,4.427,0,0,0-.841.23,3.033,3.033,0,0,0-1.329,1.078l-.065.093-.029-.022a3.059,3.059,0,0,0-.4,1l-.007.043-.007.022v.007a3.758,3.758,0,0,0-.072.719V79.1c0,.043.007.093.007.137a.158.158,0,0,0,.007.057l.474-.575a.468.468,0,0,1,.352-.18.389.389,0,0,1,.18.043.439.439,0,0,1,.244.28.473.473,0,0,1-.086.352v.007L12.971,80.7A.915.915,0,0,1,12.417,80.975Zm6.611-.6a1.8,1.8,0,0,1-1.768-1.825V76.577a1.8,1.8,0,0,1,1.768-1.825h3.385a1.8,1.8,0,0,1,1.768,1.825v1.983a1.8,1.8,0,0,1-1.768,1.825H19.029Zm0-4.563a.747.747,0,0,0-.733.762v1.983a.752.752,0,0,0,.733.762h3.385a.747.747,0,0,0,.733-.762V76.577a.752.752,0,0,0-.733-.762Z" transform="translate(23.03 107.848)"/></g></svg>