<svg xmlns="http://www.w3.org/2000/svg" xmlns:xlink="http://www.w3.org/1999/xlink" width="24" height="24" viewBox="0 0 24 24"><defs><style>.a{fill:#fff;}.b{clip-path:url(#a);}</style><clipPath id="a"><rect class="a" width="24" height="24" transform="translate(32 181)"/></clipPath></defs><g class="b" transform="translate(-32 -181)"><path class="a" d="M12.892,93.94a2.694,2.694,0,0,1-2.652-2.727V88.237A2.7,2.7,0,0,1,12.892,85.5H17.98a2.7,2.7,0,0,1,2.652,2.738v2.975A2.7,2.7,0,0,1,17.98,93.95H12.892Zm0-6.845a1.121,1.121,0,0,0-1.1,1.143v2.975a1.128,1.128,0,0,0,1.1,1.143h5.077a1.121,1.121,0,0,0,1.1-1.143V88.237a1.128,1.128,0,0,0-1.1-1.143Zm10.23,6.5a.662.662,0,0,1-.668-.658.723.723,0,0,1,.755-.744,9.231,9.231,0,0,0,1.477-.356l.022-.011h.022a3.509,3.509,0,0,0,1.4-1.132l.011-.022.032-.022h.011a3.944,3.944,0,0,0,1.089-2.027c.011-.065.022-.119.032-.172l.011-.054a5.546,5.546,0,0,0,.129-1.035,1.957,1.957,0,0,0-.011-.216,1.046,1.046,0,0,1-.011-.183l-.787.959a.7.7,0,0,1-.528.269.618.618,0,0,1-.269-.065.65.65,0,0,1-.367-.431.7.7,0,0,1,.129-.528l.011-.011L27.4,84.939a1.36,1.36,0,0,1,.819-.41,1.137,1.137,0,0,1,.927.614l1.606,2.318s.259.367-.194.841a.715.715,0,0,1-.485.237.522.522,0,0,1-.356-.14l-.895-1.2v.356a6.272,6.272,0,0,1-4.247,5.821,1.468,1.468,0,0,1-.28.086l-.086.022c-.259.065-.5.108-.7.14h-.388Zm-9.615-9.508a1.11,1.11,0,0,1-.938-.636l-1.509-2.382s-.259-.367.194-.83A.736.736,0,0,1,11.738,80a.522.522,0,0,1,.356.14l.895,1.186v-.162a8.715,8.715,0,0,1,.183-1.6,6.484,6.484,0,0,1,1.736-2.943,5.792,5.792,0,0,1,2.943-1.52,4.22,4.22,0,0,1,1.1-.1c.2,0,.323.28.334.55a.775.775,0,0,1-.755.862l-.043.011a6.641,6.641,0,0,0-1.261.345A4.549,4.549,0,0,0,15.231,78.4l-.1.14-.043-.032a4.589,4.589,0,0,0-.6,1.5l-.011.065-.011.032v.011a5.638,5.638,0,0,0-.108,1.078v.086c0,.065.011.14.011.2a.237.237,0,0,0,.011.086l.711-.862a.7.7,0,0,1,.528-.269.584.584,0,0,1,.269.065.658.658,0,0,1,.367.42.709.709,0,0,1-.129.528v.011l-1.789,2.21A1.372,1.372,0,0,1,13.506,84.087Zm9.917-.895a2.7,2.7,0,0,1-2.652-2.738V77.49a2.7,2.7,0,0,1,2.652-2.738H28.5a2.7,2.7,0,0,1,2.652,2.738v2.975A2.7,2.7,0,0,1,28.5,83.2H23.423Zm0-6.845a1.121,1.121,0,0,0-1.1,1.143v2.975a1.128,1.128,0,0,0,1.1,1.143H28.5a1.121,1.121,0,0,0,1.1-1.143V77.49a1.128,1.128,0,0,0-1.1-1.143Z" transform="translate(23.665 108.649)"/></g></svg>