<svg xmlns="http://www.w3.org/2000/svg" xmlns:xlink="http://www.w3.org/1999/xlink" width="16" height="16" viewBox="0 0 16 16"><defs><style>.a{fill:#fff;}.b{clip-path:url(#a);}.c,.d,.e{fill:none;}.c,.e{stroke:#fff;stroke-linejoin:round;}.d{fill-rule:evenodd;}.e{stroke-linecap:round;}</style><clipPath id="a"><rect class="a" width="16" height="16" transform="translate(1308 126)"/></clipPath></defs><g class="b" transform="translate(-1308 -126)"><g transform="translate(1304.739 122.739)"><path class="c" d="M6,6.877A.877.877,0,0,1,6.877,6h7.389l2.256,2.106v7.538a.877.877,0,0,1-.877.877H6.877A.877.877,0,0,1,6,15.645Z" transform="translate(0 0)"/><path class="d" d="M16.925,6l0,2.158c0,.1-.131.18-.292.18H14.292c-.161,0-.292-.081-.292-.18V6" transform="translate(-5.662 0)"/><path class="c" d="M16.925,6l0,2.158c0,.1-.131.18-.292.18H14.292c-.161,0-.292-.081-.292-.18V6Z" transform="translate(-5.662 0)"/><path class="e" d="M9,6h7.389" transform="translate(-2.123)"/><path class="e" d="M14,26h5.845" transform="translate(-5.662 -14.155)"/><path class="e" d="M14,34h2.925" transform="translate(-5.662 -19.817)"/></g></g></svg>