<svg xmlns="http://www.w3.org/2000/svg" xmlns:xlink="http://www.w3.org/1999/xlink" width="24" height="24" viewBox="0 0 24 24"><defs><style>.a{fill:#fff;}.b{clip-path:url(#a);}.c{fill:none;stroke:#999;stroke-linejoin:round;stroke-width:1.5px;}</style><clipPath id="a"><rect class="a" width="24" height="24" transform="translate(356 855)"/></clipPath></defs><g class="b" transform="translate(-356 -855)"><g transform="translate(353.543 852.226)"><path class="c" d="M11.468,24.826a10.454,10.454,0,0,1-4.547-2.773,3.137,3.137,0,0,0-2.4-5.159q-.157,0-.311.015a10.535,10.535,0,0,1,.267-5.244h.044A3.138,3.138,0,0,0,7.338,7.142a10.44,10.44,0,0,1,4.323-2.419,3.138,3.138,0,0,0,5.592,0,10.44,10.44,0,0,1,4.323,2.419,3.138,3.138,0,0,0,2.815,4.523h.044a10.534,10.534,0,0,1,.267,5.244q-.153-.015-.311-.015a3.137,3.137,0,0,0-2.4,5.159,10.454,10.454,0,0,1-4.547,2.773,3.138,3.138,0,0,0-5.977,0Z" transform="translate(0 0)"/><path class="c" d="M20.66,24.32A3.66,3.66,0,1,0,17,20.66,3.66,3.66,0,0,0,20.66,24.32Z" transform="translate(-6.203 -5.858)"/></g></g></svg>