<svg xmlns="http://www.w3.org/2000/svg" xmlns:xlink="http://www.w3.org/1999/xlink" width="24" height="24" viewBox="0 0 24 24"><defs><style>.a{fill:#fff;}.b{clip-path:url(#a);}.c{clip-path:url(#b);}.d,.e{fill:none;stroke:#fff;stroke-linejoin:round;stroke-width:1.5px;}.e{stroke-linecap:round;}</style><clipPath id="a"><rect class="a" width="24" height="24" transform="translate(32 181)"/></clipPath><clipPath id="b"><rect class="a" width="21" height="21"/></clipPath></defs><g class="b" transform="translate(-32 -181)"><g class="c" transform="translate(33.5 182.5)"><g transform="translate(2.197 2.198)"><path class="d" d="M8.195,4H4V8.195H8.195Z" transform="translate(-4 -4)"/><path class="d" d="M8.195,4H4V8.195H8.195Z" transform="translate(-4 8.411)"/><path class="d" d="M8.195,4H4V8.195H8.195Z" transform="translate(8.411 -4)"/><path class="d" d="M8.195,4H4V8.195H8.195Z" transform="translate(8.411 8.411)"/><path class="e" d="M8,19.765V12" transform="translate(-5.902 -7.805)"/><path class="e" d="M40,19.765V12" transform="translate(-25.491 -7.805)"/><path class="e" d="M12,8h7.668" transform="translate(-7.259 -5.903)"/><path class="e" d="M12,40h8.214" transform="translate(-7.805 -25.492)"/></g></g></g></svg>