<svg xmlns="http://www.w3.org/2000/svg" xmlns:xlink="http://www.w3.org/1999/xlink" width="16" height="16" viewBox="0 0 16 16"><defs><style>.a{fill:#fff;}.b{clip-path:url(#a);}.c{clip-path:url(#b);}.d{fill:none;stroke:#64c37d;stroke-linecap:round;stroke-linejoin:round;}</style><clipPath id="a"><rect class="a" width="16" height="16" transform="translate(32 181)"/></clipPath><clipPath id="b"><rect class="a" width="14" height="14" transform="translate(319.717 221.717)"/></clipPath></defs><g class="b" transform="translate(-32 -181)"><g class="c" transform="translate(-286.717 -39.717)"><g transform="translate(317.003 218.624)"><path class="d" d="M15.431,11s0,7.463,0,8.04c0,.987-2.559,1.787-5.715,1.787S4,20.027,4,19.04C4,18.487,4,11,4,11" transform="translate(0 -5.018)"/><path class="d" d="M15.431,29c0,.987-2.559,1.787-5.715,1.787S4,29.987,4,29" transform="translate(0 -17.658)"/><path class="d" d="M15.431,20c0,.987-2.559,1.787-5.715,1.787S4,20.987,4,20" transform="translate(0 -11.338)"/><ellipse class="d" cx="5.715" cy="1.27" rx="5.715" ry="1.27" transform="translate(4 4.379)"/></g></g></g></svg>