<svg xmlns="http://www.w3.org/2000/svg" xmlns:xlink="http://www.w3.org/1999/xlink" width="24" height="24" viewBox="0 0 24 24"><defs><style>.a{fill:#fff;}.b{clip-path:url(#a);}.c{clip-path:url(#b);}.d{fill:none;stroke:#fff;stroke-linecap:round;stroke-linejoin:round;stroke-width:1.5px;}</style><clipPath id="a"><rect class="a" width="24" height="24" transform="translate(320 222)"/></clipPath><clipPath id="b"><rect class="a" width="22" height="22" transform="translate(319.74 221.74)"/></clipPath></defs><g class="b" transform="translate(-320 -222)"><g class="c" transform="translate(1.26 1.26)"><g transform="translate(321.74 223.739)"><path class="d" d="M21.981,11s0,11.74,0,12.648c0,1.552-4.025,2.811-8.99,2.811S4,25.2,4,23.648C4,22.778,4,11,4,11" transform="translate(-4 -8.478)"/><path class="d" d="M21.981,29c0,1.552-4.025,2.811-8.99,2.811S4,30.552,4,29" transform="translate(-4 -18.047)"/><path class="d" d="M21.981,20c0,1.552-4.025,2.811-8.99,2.811S4,21.552,4,20" transform="translate(-4 -13.262)"/><ellipse class="d" cx="8.99" cy="1.998" rx="8.99" ry="1.998"/></g></g></g></svg>