<svg xmlns="http://www.w3.org/2000/svg" xmlns:xlink="http://www.w3.org/1999/xlink" width="16" height="16" viewBox="0 0 16 16"><defs><style>.a{fill:#fff;}.b{clip-path:url(#a);}.c{clip-path:url(#b);}.d,.e,.f{fill:none;stroke:#222;}.d,.e{stroke-linejoin:round;}.e,.f{stroke-linecap:round;}</style><clipPath id="a"><rect class="a" width="16" height="16" transform="translate(32 181)"/></clipPath><clipPath id="b"><rect class="a" width="14" height="14" transform="translate(319.717 221.717)"/></clipPath></defs><g class="b" transform="translate(-32 -181)"><g class="c" transform="translate(-286.717 -39.717)"><g transform="translate(321.229 223.229)"><path class="d" d="M25.038,18H18.306a.306.306,0,0,0-.306.306v6.732a.306.306,0,0,0,.306.306h6.732a.306.306,0,0,0,.306-.306V18.306A.306.306,0,0,0,25.038,18Z" transform="translate(-14.328 -14.328)"/><path class="e" d="M7.215,6H6V7.234" transform="translate(-6 -6)"/><path class="e" d="M7.223,27.232H6v-1.22" transform="translate(-6 -19.888)"/><path class="e" d="M26,6h1.223V7.229" transform="translate(-19.882 -6)"/><path class="e" d="M16.028,6h1.218" transform="translate(-12.96 -6)"/><path class="e" d="M6,16v1.224" transform="translate(-6 -12.94)"/><path class="e" d="M30,16v.4" transform="translate(-22.656 -12.94)"/><path class="f" d="M15.992,30h.614" transform="translate(-12.935 -22.656)"/></g></g></g></svg>