<svg xmlns="http://www.w3.org/2000/svg" xmlns:xlink="http://www.w3.org/1999/xlink" width="16" height="16" viewBox="0 0 16 16"><defs><style>.a{fill:#fff;}.b{clip-path:url(#a);}.c{clip-path:url(#b);}.d,.e{fill:none;stroke:#fdbb51;stroke-linejoin:round;}.e{stroke-linecap:round;}</style><clipPath id="a"><rect class="a" width="16" height="16" transform="translate(32 181)"/></clipPath><clipPath id="b"><rect class="a" width="14" height="14" transform="translate(319.717 221.717)"/></clipPath></defs><g class="b" transform="translate(-32 -181)"><g class="c" transform="translate(-286.717 -39.717)"><g transform="translate(317.48 219.481)"><path class="d" d="M6.8,4H4V6.8H6.8Z" transform="translate(-0.299 -0.299)"/><path class="d" d="M6.8,4H4V6.8H6.8Z" transform="translate(-0.299 7.975)"/><path class="d" d="M6.8,4H4V6.8H6.8Z" transform="translate(7.975 -0.299)"/><path class="d" d="M6.8,4H4V6.8H6.8Z" transform="translate(7.975 7.975)"/><path class="e" d="M8,17.176V12" transform="translate(-2.9 -5.502)"/><path class="e" d="M40,17.176V12" transform="translate(-26.626 -5.502)"/><path class="e" d="M12,8h5.112" transform="translate(-5.138 -2.9)"/><path class="e" d="M12,40h5.476" transform="translate(-5.502 -26.626)"/></g></g></g></svg>