<svg xmlns="http://www.w3.org/2000/svg" xmlns:xlink="http://www.w3.org/1999/xlink" width="12" height="12" viewBox="0 0 12 12"><defs><style>.a{fill:#fff;}.b{clip-path:url(#a);}.c{fill:#ff4d4f;}</style><clipPath id="a"><rect class="a" width="12" height="12" transform="translate(737 578)"/></clipPath></defs><g class="b" transform="translate(-737 -578)"><path class="c" d="M10.427,8.729H9.622V3.939a3.815,3.815,0,0,0-.309-1.507A3.922,3.922,0,0,0,7.233.365,3.812,3.812,0,0,0,5.73.058a3.918,3.918,0,0,0-3.6,2.374,3.827,3.827,0,0,0-.309,1.51l.008,4.788H1.083A.411.411,0,0,0,1.1,9.55h9.344a.411.411,0,1,0-.015-.821Zm-4.917-.4V5.436H4.056l2-3.722V4.745h1.4Z" transform="translate(737.309 578.942)"/></g></svg>