<svg id="图层_1" data-name="图层 1" xmlns="http://www.w3.org/2000/svg" viewBox="0 0 333 144.5"><defs><style>.cls-1,.cls-3{fill:#246fdd;}.cls-2{fill:#24dd7f;}.cls-3{stroke:#246fdd;stroke-width:0.1px;}</style></defs><path class="cls-1" d="M105.75,62.89s19.34-21.1,43.74-17.48c18.32,2.72,26.66,12.6,30.63,17.94h-12s-8.86-8.09-21.19-9.71C135.76,52.17,126.7,52.76,105.75,62.89Z"/><path class="cls-1" d="M142.13,47.06S137,27,112.71,23,66.2,33,49.62,56.83l20.06-3.58s17.24-26,41.95-21.6c14.33,2.56,22,9,24.87,16.48Z"/><path class="cls-2" d="M66.61,57.9S25,64.83,20.56,92c-3.69,22.46,16.58,30.24,29.78,30.24H150.72l1.08-5.07s-63.6.29-90.31,0C47.27,117,36.42,112.7,36.42,97c0-13.35,11.46-23.6,25.89-28.53Z"/><path class="cls-3" d="M83.85,113.22H64.42l1.72-6.9H83.83q4.23,0,5.83-.81h0a5.55,5.55,0,0,0,2.94-3.66h0q.7-2.85-1.35-4.12h0A8.05,8.05,0,0,0,87.14,97h-7.2c-4.36,0-7.31-.8-8.85-2.38h0a7.52,7.52,0,0,1-1.87-3.77A11,11,0,0,1,69.41,86h0a16.47,16.47,0,0,1,4.23-7.42h0A13.17,13.17,0,0,1,82,74.71h0c1.19-.12,2.93-.18,5.21-.18h19.19l-1.72,6.91H87.36a31.26,31.26,0,0,0-5.25.34h0q-2.76.63-3.59,4h0q-.69,2.77,1.27,3.71h0a11,11,0,0,0,4.71.7h6.2a21,21,0,0,1,6.88.81h0A6.37,6.37,0,0,1,102,95.82h0a13.87,13.87,0,0,1-.26,6h0a15.82,15.82,0,0,1-3.2,6.33h0a13,13,0,0,1-8,4.75h0a48.66,48.66,0,0,1-6.75.35Z"/><path class="cls-3" d="M114.08,74.53h8.18l-5.78,23.2a15.75,15.75,0,0,0-.62,4.32,4.79,4.79,0,0,0,.91,2.64h0c1.23,1.58,3.29,2.38,6.19,2.38h0a13.08,13.08,0,0,0,5.09-1,8.22,8.22,0,0,0,3.51-2.58h0a17.47,17.47,0,0,0,2.26-5.8h0l5.78-23.2h8.24l-5.68,22.8a29,29,0,0,1-2.82,7.45,15.47,15.47,0,0,1-4.11,4.73h0q-5.58,4-14,4h0q-9,0-12.12-3.94h0a8,8,0,0,1-1.83-4.56,24.39,24.39,0,0,1,1-7.1h0Z"/><path class="cls-3" d="M170.5,99.71H157.28l-3.37,13.51h-8.24l9.65-38.69h19.32a24.06,24.06,0,0,1,7.35.76h0a7.47,7.47,0,0,1,4.71,5.28h0a12.43,12.43,0,0,1,0,6.55h0a18.5,18.5,0,0,1-2.47,5.6A16.06,16.06,0,0,1,180.15,97h0a13.73,13.73,0,0,1-4.2,2.09,21.23,21.23,0,0,1-5.45.58Zm-8.67-18.27L159,92.8h11.19a8.57,8.57,0,0,0,4.47-.92h0a8.16,8.16,0,0,0,3.06-5h0q1-3.9-1.49-5h0a8,8,0,0,0-3-.4H161.83Z"/><path class="cls-3" d="M193.64,113.22H185.4l9.65-38.69h8.24Z"/><path class="cls-3" d="M226.25,74.53h13.86l-1.72,6.91H227.66a24.71,24.71,0,0,0-6.24.58,8.57,8.57,0,0,0-3.75,2.26h0a9.42,9.42,0,0,0-1.76,2.32,30,30,0,0,0-1.54,3.94h21.75l-1.72,6.9H212.65q-.78,5,1.23,6.93c1.34,1.3,4,1.95,8,1.95h10.32l-1.72,6.9H219.74a48.13,48.13,0,0,1-7.53-.52h0a9.65,9.65,0,0,1-7.15-4.58h0q-3.08-5.34-.8-14.45h0A26.87,26.87,0,0,1,214.38,78h0a16.81,16.81,0,0,1,5.22-2.67,24.08,24.08,0,0,1,6.65-.76Z"/><path class="cls-3" d="M237,113.22l9.65-38.69H263c4.1,0,7.17.4,9.2,1.22h0a9.27,9.27,0,0,1,6.22,8.3h0a29.73,29.73,0,0,1-.9,9.91h0a38,38,0,0,1-4,9.86h0a17.79,17.79,0,0,1-6.74,7h0a17.76,17.76,0,0,1-5.31,1.89,51.12,51.12,0,0,1-8.15.49H237ZM261.3,81.44h-8.18l-6.2,24.88h8.18c3.59,0,6.29-.8,8.07-2.38h0a15.69,15.69,0,0,0,3.12-4.23,25.42,25.42,0,0,0,2.23-5.8h0a19.64,19.64,0,0,0,.63-6.27,7.3,7.3,0,0,0-1.38-4.23h0c-1.14-1.32-3.3-2-6.47-2Z"/><path class="cls-3" d="M287.08,113.22,295,81.44H282.7l1.73-6.91h33.35l-1.73,6.91H303.23l-7.92,31.78Z"/></svg>