<svg data-noselect="" viewBox="0 0 800 600" width="800" height="600" preserveAspectRatio="none" version="1.1" xmlns="http://www.w3.org/2000/svg" xmlns:xlink="http://www.w3.org/1999/xlink" class="svg-canvas"><defs></defs>  <g id="shape_AjwXCJgVSQ" transform="translate(255.73595428467,250.0321714893) rotate(0,80,49.967828510696) scale(1,1)" filter="" style="opacity: 1;"><g><rect fill="rgba(0,0,0,0)" width="180" height="119.935657021393" x="-10" y="-10"></rect><svg version="1.1" id="图层_1" xmlns="http://www.w3.org/2000/svg" xmlns:xlink="http://www.w3.org/1999/xlink" x="0px" y="0px" width="160" height="99.935657021393" viewBox="10.189589500427246 43.904483795166016 179.6204071044922 112.19052124023438" enable-background="new 0 0 200 200" xml:space="preserve" preserveAspectRatio="none" class="style-removed" data-parent="shape_AjwXCJgVSQ">
<g>
	<path fill="#246fdd" d="M106.321,89.494c0,0,21.712-23.689,49.111-19.623c20.564,3.052,29.926,14.137,34.378,20.14H176.37
		c0,0-9.943-9.084-23.78-10.899C140.013,77.462,129.843,78.121,106.321,89.494z" stroke-width="0"></path>
	<path fill="#246fdd" d="M147.161,71.716c0,0-5.801-22.574-33.028-27.054S61.92,55.92,43.31,82.687l22.517-4.021
		c0,0,19.354-29.195,47.101-24.24c16.083,2.872,24.699,10.109,27.916,18.496L147.161,71.716z" stroke-width="0"></path>
	<path fill="#24dd7f" d="M62.38,83.893c0,0-46.698,7.782-51.696,38.255c-4.136,25.216,18.611,33.947,33.43,33.947
		c18.036,0,112.698,0,112.698,0l1.206-5.687c0,0-71.397,0.324-101.38,0c-15.968-0.172-28.147-4.996-28.147-22.574
		c0-14.992,12.867-26.502,29.065-32.034L62.38,83.893z" stroke-width="0"></path>
</g>
</svg></g></g><g id="shape_W7YDZ35Q8m" transform="translate(238.26404571532998,117.14582851069997) rotate(0,182,203.822) scale(1,1)" filter="" style="opacity: 1;"><g><svg xmlns="http://www.w3.org/2000/svg" version="1.1" xmlns:xlink="http://www.w3.org/1999/xlink" width="480" height="407.644" viewBox="0 0 480 407.644" data-parent="shape_W7YDZ35Q8m"><rect fill="rgba(0,0,0,0)" width="248" height="58" x="58" y="174.822"></rect><g data-width="247.776" transform="translate(58, 0)"><path d="M23.20 0L3.77 0L3.77-6.90L21.46-6.90Q25.69-6.90 27.09-7.71L27.09-7.71Q29.12-8.93 29.12-11.37L29.12-11.37Q29.12-14.21 26.74-15.49L26.74-15.49Q25.40-16.24 22.45-16.24L22.45-16.24L15.25-16.24Q8.70-16.24 5.80-18.62L5.80-18.62Q4.00-20.13 2.99-22.39Q1.97-24.65 1.97-27.26L1.97-27.26Q1.97-31.32 4.35-34.68L4.35-34.68Q6.67-37.93 11.77-38.51L11.77-38.51Q13.51-38.69 16.94-38.69L16.94-38.69L36.13-38.69L36.13-31.78L18.79-31.78Q14.91-31.73 13.63-31.44L13.63-31.44Q11.02-30.80 11.02-27.49L11.02-27.49Q11.02-24.71 13.22-23.78L13.22-23.78Q14.67-23.08 18.10-23.08L18.10-23.08L24.30-23.08Q29.06-23.08 31.38-22.27L31.38-22.27Q35.50-20.88 37.06-17.40L37.06-17.40Q38.28-14.62 38.28-11.43L38.28-11.43Q38.28-7.89 36.66-5.10L36.66-5.10Q34.39-1.16 29.87-0.35L29.87-0.35Q27.67 0 23.20 0L23.20 0Z" transform="translate(0 223.822) skewX(-14)" fill="rgb(36, 111, 221)" stroke="rgb(36, 111, 221)" stroke-width="0.097" data-glyph-w="40.31" data-glyph-h="58" data-glyph-ascender="49.822" data-glyph-descender="-8.178"></path><path d="M3.48-38.69L11.66-38.69L11.66-15.49Q11.66-12.70 12.12-11.17Q12.59-9.63 13.69-8.53L13.69-8.53Q16.12-6.15 20.47-6.15L20.47-6.15Q23.26-6.15 25.32-7.11Q27.38-8.06 28.19-9.69L28.19-9.69Q29-11.31 29-15.49L29-15.49L29-38.69L37.24-38.69L37.24-15.89Q37.24-11.37 36.28-8.44Q35.32-5.51 33.35-3.71L33.35-3.71Q28.77 0.29 20.36 0.29L20.36 0.29Q11.37 0.29 7.25-3.65L7.25-3.65Q5.10-5.68 4.29-8.21Q3.48-10.73 3.48-15.31L3.48-15.31L3.48-38.69Z" transform="translate(40.31 223.822) skewX(-14)" fill="rgb(36, 111, 221)" stroke="rgb(36, 111, 221)" stroke-width="0.097" data-glyph-w="40.774" data-glyph-h="58" data-glyph-ascender="49.822" data-glyph-descender="-8.178"></path><path d="M25.40-13.51L12.18-13.51L12.18 0L3.94 0L3.94-38.69L23.26-38.69Q28.54-38.69 30.80-37.93L30.80-37.93Q34.63-36.66 36.83-32.65L36.83-32.65Q38.45-29.64 38.45-26.10L38.45-26.10Q38.45-23.14 37.38-20.50Q36.31-17.86 34.39-16.18L34.39-16.18Q32.65-14.67 30.71-14.09Q28.77-13.51 25.40-13.51L25.40-13.51ZM12.18-31.78L12.18-20.42L23.37-20.42Q26.39-20.42 27.61-21.34L27.61-21.34Q29.41-22.79 29.41-26.39L29.41-26.39Q29.41-30.28 26.68-31.38L26.68-31.38Q25.69-31.78 23.55-31.78L23.55-31.78L12.18-31.78Z" transform="translate(81.084 223.822) skewX(-14)" fill="rgb(36, 111, 221)" stroke="rgb(36, 111, 221)" stroke-width="0.097" data-glyph-w="39.730000000000004" data-glyph-h="58" data-glyph-ascender="49.822" data-glyph-descender="-8.178"></path><path d="M12.18 0L3.94 0L3.94-38.69L12.18-38.69L12.18 0Z" transform="translate(120.81400000000001 223.822) skewX(-14)" fill="rgb(36, 111, 221)" stroke="rgb(36, 111, 221)" stroke-width="0.097" data-glyph-w="16.066000000000003" data-glyph-h="58" data-glyph-ascender="49.822" data-glyph-descender="-8.178"></path><path d="M19.08-38.69L32.94-38.69L32.94-31.78L22.21-31.78Q18.04-31.78 16.12-31.20Q14.21-30.62 12.93-28.94L12.93-28.94Q12.06-27.78 11.75-26.62Q11.43-25.46 11.19-22.68L11.19-22.68L32.94-22.68L32.94-15.78L11.19-15.78Q11.66-10.79 14.15-8.85Q16.65-6.90 22.62-6.90L22.62-6.90L32.94-6.90L32.94 0L22.21 0Q17.86 0 14.56-0.52L14.56-0.52Q9.34-1.39 6.26-5.10L6.26-5.10Q1.86-10.44 1.86-19.55L1.86-19.55Q1.86-29.64 8.06-35.26L8.06-35.26Q10.21-37.18 12.62-37.93Q15.02-38.69 19.08-38.69L19.08-38.69Z" transform="translate(136.88 223.822) skewX(-14)" fill="rgb(36, 111, 221)" stroke="rgb(36, 111, 221)" stroke-width="0.097" data-glyph-w="35.496" data-glyph-h="58" data-glyph-ascender="49.822" data-glyph-descender="-8.178"></path><path d="M3.94 0L3.94-38.69L20.36-38.69Q26.51-38.69 29.87-37.47L29.87-37.47Q36.08-35.21 38.16-29.17L38.16-29.17Q39.73-24.53 39.73-19.26L39.73-19.26Q39.73-14.04 38.22-9.40L38.22-9.40Q36.71-4.64 33.23-2.38L33.23-2.38Q31.03-0.99 28.39-0.49Q25.75 0 20.36 0L20.36 0L3.94 0ZM20.36-31.78L12.18-31.78L12.18-6.90L20.36-6.90Q25.75-6.90 27.84-9.28L27.84-9.28Q29.12-10.79 29.90-13.51Q30.68-16.24 30.68-19.31L30.68-19.31Q30.68-22.74 29.75-25.58Q28.83-28.42 27.32-29.81L27.32-29.81Q25.11-31.78 20.36-31.78L20.36-31.78Z" transform="translate(172.376 223.822) skewX(-14)" fill="rgb(36, 111, 221)" stroke="rgb(36, 111, 221)" stroke-width="0.097" data-glyph-w="41.528" data-glyph-h="58" data-glyph-ascender="49.822" data-glyph-descender="-8.178"></path><path d="M12.53 0L12.53-31.78L0.23-31.78L0.23-38.69L33.58-38.69L33.58-31.78L20.76-31.78L20.76 0L12.53 0Z" transform="translate(213.904 223.822) skewX(-14)" fill="rgb(36, 111, 221)" stroke="rgb(36, 111, 221)" stroke-width="0.097" data-glyph-w="33.872" data-glyph-h="58" data-glyph-ascender="49.822" data-glyph-descender="-8.178"></path></g></svg></g></g></svg>