<svg xmlns="http://www.w3.org/2000/svg" xmlns:xlink="http://www.w3.org/1999/xlink" width="64" height="64" viewBox="0 0 64 64"><defs><style>.a,.e{fill:#fff;}.b{clip-path:url(#a);}.c{fill:url(#b);}.d{fill:rgba(185,193,255,0.5);}.e{font-size:17px;font-family:Arial-BoldMT, Arial;font-weight:700;}.f{filter:url(#c);}</style><clipPath id="a"><rect class="a" width="64" height="64"/></clipPath><linearGradient id="b" y1="0.438" x2="1" y2="0.566" gradientUnits="objectBoundingBox"><stop offset="0" stop-color="#3246d2"/><stop offset="1" stop-color="#5d70f7"/></linearGradient><filter id="c"><feOffset dx="0.2" dy="0.1" input="SourceAlpha"/><feGaussianBlur stdDeviation="0.5" result="d"/><feFlood flood-color="#fff" flood-opacity="0.6" result="e"/><feComposite operator="out" in="SourceGraphic" in2="d"/><feComposite operator="in" in="e"/><feComposite operator="in" in2="SourceGraphic"/></filter></defs><g class="b"><g transform="translate(15.408 13.749)"><g transform="translate(0 3.451)"><path class="c" d="M16.592,0A16.526,16.526,0,1,0,33.184,16.526,16.558,16.558,0,0,0,16.592,0Z"/></g><g transform="translate(2.373)"><path class="d" d="M17.853,24.955a2.711,2.711,0,0,1,2.29-1.269H23.03a5.4,5.4,0,0,0,5.417-5.392V5.392A5.4,5.4,0,0,0,23.03,0H5.417A5.4,5.4,0,0,0,0,5.392v12.9a5.4,5.4,0,0,0,5.417,5.392H8.3a2.711,2.711,0,0,1,2.29,1.269L11.93,27.07a2.714,2.714,0,0,0,4.588,0Z"/><g class="f" transform="matrix(1, 0, 0, 1, -17.78, -13.75)"><path class="a" d="M17.853,24.955a2.711,2.711,0,0,1,2.29-1.269H23.03a5.4,5.4,0,0,0,5.417-5.392V5.392A5.4,5.4,0,0,0,23.03,0H5.417A5.4,5.4,0,0,0,0,5.392v12.9a5.4,5.4,0,0,0,5.417,5.392H8.3a2.711,2.711,0,0,1,2.29,1.269L11.93,27.07a2.714,2.714,0,0,0,4.588,0Z" transform="translate(17.78 13.75)"/></g></g></g><text class="e" transform="translate(40 32)"><tspan x="-17" y="0">AI</tspan></text></g></svg>