<svg xmlns="http://www.w3.org/2000/svg" xmlns:xlink="http://www.w3.org/1999/xlink" width="64" height="64" viewBox="0 0 64 64"><defs><style>.a{fill:#fff;}.b{clip-path:url(#a);}.c{fill:url(#b);}.d{fill:rgba(200,205,244,0.5);}.e{filter:url(#e);}</style><clipPath id="a"><rect class="a" width="64" height="64"/></clipPath><linearGradient id="b" x1="0.068" y1="0.305" x2="0.958" y2="0.22" gradientUnits="objectBoundingBox"><stop offset="0" stop-color="#3246d2"/><stop offset="1" stop-color="#818fed"/></linearGradient><filter id="e"><feOffset dx="0.2" dy="0.1" input="SourceAlpha"/><feGaussianBlur stdDeviation="0.5" result="f"/><feFlood flood-color="#fff" flood-opacity="0.6" result="g"/><feComposite operator="out" in="SourceGraphic" in2="f"/><feComposite operator="in" in="g"/><feComposite operator="in" in2="SourceGraphic"/></filter></defs><g class="b"><g transform="translate(14 11)"><path class="c" d="M35,1.15A3.865,3.865,0,0,0,32.24,0H3.91A3.892,3.892,0,0,0,0,3.91,3.865,3.865,0,0,0,1.15,6.67,3.9,3.9,0,0,0,3.91,7.81H32.24A3.9,3.9,0,0,0,35,1.15Z" transform="translate(0 4.88)"/><path class="c" d="M1.15,6.67A3.9,3.9,0,0,0,3.91,7.81H32.24A3.9,3.9,0,0,0,35,1.15,3.865,3.865,0,0,0,32.24,0H3.91A3.892,3.892,0,0,0,0,3.91,3.865,3.865,0,0,0,1.15,6.67Z" transform="translate(0 15.63)"/><path class="c" d="M35,1.15A3.865,3.865,0,0,0,32.24,0H3.91A3.892,3.892,0,0,0,0,3.91,3.865,3.865,0,0,0,1.15,6.67,3.9,3.9,0,0,0,3.91,7.81H32.24A3.9,3.9,0,0,0,35,1.15Z" transform="translate(0 26.37)"/><path class="d" d="M10.75,42A10.742,10.742,0,0,0,21.49,31.26V4a4,4,0,0,0-4-4H4A4,4,0,0,0,0,4V31.26A10.738,10.738,0,0,0,10.75,42Z" transform="translate(7.81)"/><g class="e" transform="matrix(1, 0, 0, 1, -14, -11)"><path class="a" d="M10.75,42A10.742,10.742,0,0,0,21.49,31.26V4a4,4,0,0,0-4-4H4A4,4,0,0,0,0,4V31.26A10.738,10.738,0,0,0,10.75,42Z" transform="translate(21.81 11)"/></g><path class="a" d="M3.91,0a3.905,3.905,0,1,0,3.9,3.91A3.909,3.909,0,0,0,3.91,0Z" transform="translate(14.65 4.88)"/><path class="a" d="M3.91,0a3.905,3.905,0,1,0,3.9,3.91A3.909,3.909,0,0,0,3.91,0Z" transform="translate(14.65 15.63)"/><path class="a" d="M3.91,0a3.905,3.905,0,1,0,3.9,3.91A3.909,3.909,0,0,0,3.91,0Z" transform="translate(14.65 26.37)"/></g></g></svg>