<svg xmlns="http://www.w3.org/2000/svg" xmlns:xlink="http://www.w3.org/1999/xlink" width="64" height="64" viewBox="0 0 64 64"><defs><style>.a{fill:#fff;}.b{clip-path:url(#a);}.c{fill:url(#b);}.d{fill:rgba(200,205,244,0.5);}.e{filter:url(#c);}</style><clipPath id="a"><rect class="a" width="64" height="64"/></clipPath><linearGradient id="b" x1="0.068" y1="0.305" x2="0.958" y2="0.22" gradientUnits="objectBoundingBox"><stop offset="0" stop-color="#3246d2"/><stop offset="1" stop-color="#818fed"/></linearGradient><filter id="c"><feOffset dx="0.2" dy="0.1" input="SourceAlpha"/><feGaussianBlur stdDeviation="0.5" result="d"/><feFlood flood-color="#fff" flood-opacity="0.6" result="e"/><feComposite operator="out" in="SourceGraphic" in2="d"/><feComposite operator="in" in="e"/><feComposite operator="in" in2="SourceGraphic"/></filter></defs><g class="b"><g transform="translate(4 3)"><path class="c" d="M.41,24.517a2.645,2.645,0,0,0,2.64,4.02l13.75-2.1a2.682,2.682,0,0,1,.8,0l13.75,2.1a2.645,2.645,0,0,0,2.64-4.02L19.44,1.237a2.646,2.646,0,0,0-4.48,0Z" transform="translate(-0.003 24.329) rotate(-45)"/><path class="d" d="M5.35,10.71H19.11A5.355,5.355,0,0,0,19.11,0H5.35a5.355,5.355,0,0,0,0,10.71Z" transform="translate(28.699 21.011) rotate(45)"/><g class="e" transform="matrix(1, 0, 0, 1, -4, -3)"><path class="a" d="M5.35,10.71H19.11A5.355,5.355,0,0,0,19.11,0H5.35a5.355,5.355,0,0,0,0,10.71Z" transform="translate(32.7 24.01) rotate(45)"/></g></g></g></svg>