<svg xmlns="http://www.w3.org/2000/svg" xmlns:xlink="http://www.w3.org/1999/xlink" width="64" height="64" viewBox="0 0 64 64"><defs><style>.a{fill:#fff;}.b{clip-path:url(#a);}.c{fill:url(#b);}.d{fill:rgba(200,205,244,0.5);}.e{filter:url(#c);}</style><clipPath id="a"><rect class="a" width="64" height="64" rx="6"/></clipPath><linearGradient id="b" x1="0.932" y1="0.695" x2="0.042" y2="0.78" gradientUnits="objectBoundingBox"><stop offset="0" stop-color="#3246d2"/><stop offset="1" stop-color="#818fed"/></linearGradient><filter id="c"><feOffset dx="0.2" dy="0.1" input="SourceAlpha"/><feGaussianBlur stdDeviation="0.5" result="d"/><feFlood flood-color="#fff" flood-opacity="0.6" result="e"/><feComposite operator="out" in="SourceGraphic" in2="d"/><feComposite operator="in" in="e"/><feComposite operator="in" in2="SourceGraphic"/></filter></defs><g class="b"><g transform="translate(15.055 12.384)"><rect class="c" width="35.743" height="33.879" rx="5" transform="translate(0.005 39.233) rotate(-90)"/><rect class="a" width="15.05" height="2.675" rx="1.337" transform="translate(5.314 24.964)"/><rect class="a" width="7.971" height="2.675" rx="1.337" transform="translate(5.314 30.313)"/><g transform="translate(14.765)"><path class="d" d="M0,16.333a1.783,1.783,0,0,0,2.9,1.391l2.933-2.345a1.784,1.784,0,0,1,2.238,0L11,17.724a1.783,1.783,0,0,0,2.9-1.391V1.783A1.788,1.788,0,0,0,12.116,0H1.783A1.788,1.788,0,0,0,0,1.783Z"/><g class="e" transform="matrix(1, 0, 0, 1, -29.82, -12.38)"><path class="a" d="M0,16.333a1.783,1.783,0,0,0,2.9,1.391l2.933-2.345a1.784,1.784,0,0,1,2.238,0L11,17.724a1.783,1.783,0,0,0,2.9-1.391V1.783A1.788,1.788,0,0,0,12.116,0H1.783A1.788,1.788,0,0,0,0,1.783Z" transform="translate(29.82 12.38)"/></g></g></g></g></svg>