<svg xmlns="http://www.w3.org/2000/svg" xmlns:xlink="http://www.w3.org/1999/xlink" width="64" height="64" viewBox="0 0 64 64"><defs><style>.a{fill:#fff;}.b{clip-path:url(#a);}.c{fill:url(#b);}.d{fill:rgba(200,205,244,0.5);}.e{filter:url(#g);}.f{filter:url(#c);}</style><clipPath id="a"><rect class="a" width="64" height="64"/></clipPath><linearGradient id="b" x1="0.932" y1="0.695" x2="0.042" y2="0.78" gradientUnits="objectBoundingBox"><stop offset="0" stop-color="#3246d2"/><stop offset="1" stop-color="#818fed"/></linearGradient><filter id="c"><feOffset dx="0.2" dy="0.1" input="SourceAlpha"/><feGaussianBlur stdDeviation="0.5" result="d"/><feFlood flood-color="#fff" flood-opacity="0.6" result="e"/><feComposite operator="out" in="SourceGraphic" in2="d"/><feComposite operator="in" in="e"/><feComposite operator="in" in2="SourceGraphic"/></filter><filter id="g"><feOffset dx="0.2" dy="0.1" input="SourceAlpha"/><feGaussianBlur stdDeviation="0.5" result="h"/><feFlood flood-color="#fff" flood-opacity="0.6" result="i"/><feComposite operator="out" in="SourceGraphic" in2="h"/><feComposite operator="in" in="i"/><feComposite operator="in" in2="SourceGraphic"/></filter></defs><g class="b"><g transform="translate(12 16)"><path class="c" d="M31.622,3.81A2.485,2.485,0,0,0,29.162.03L16.372,2a2.3,2.3,0,0,1-.74,0L2.842.03A2.485,2.485,0,0,0,.382,3.81l13.53,21.86a2.452,2.452,0,0,0,4.18,0Z" transform="translate(0 32.002) rotate(-90)"/><path class="d" d="M31.622,3.81A2.485,2.485,0,0,0,29.162.03L16.372,2a2.3,2.3,0,0,1-.74,0L2.842.03A2.485,2.485,0,0,0,.382,3.81l13.53,21.86a2.452,2.452,0,0,0,4.18,0Z" transform="translate(13.16 32.002) rotate(-90)"/><g class="f" transform="matrix(1, 0, 0, 1, -12, -16)"><path class="a" d="M31.622,3.81A2.485,2.485,0,0,0,29.162.03L16.372,2a2.3,2.3,0,0,1-.74,0L2.842.03A2.485,2.485,0,0,0,.382,3.81l13.53,21.86a2.452,2.452,0,0,0,4.18,0Z" transform="translate(25.16 48) rotate(-90)"/></g></g><g transform="translate(12 16)"><path class="c" d="M31.622,3.81A2.485,2.485,0,0,0,29.162.03L16.372,2a2.3,2.3,0,0,1-.74,0L2.842.03A2.485,2.485,0,0,0,.382,3.81l13.53,21.86a2.452,2.452,0,0,0,4.18,0Z" transform="translate(0 32.002) rotate(-90)"/><path class="d" d="M31.622,3.81A2.485,2.485,0,0,0,29.162.03L16.372,2a2.3,2.3,0,0,1-.74,0L2.842.03A2.485,2.485,0,0,0,.382,3.81l13.53,21.86a2.452,2.452,0,0,0,4.18,0Z" transform="translate(13.16 32.002) rotate(-90)"/><g class="e" transform="matrix(1, 0, 0, 1, -12, -16)"><path class="a" d="M31.622,3.81A2.485,2.485,0,0,0,29.162.03L16.372,2a2.3,2.3,0,0,1-.74,0L2.842.03A2.485,2.485,0,0,0,.382,3.81l13.53,21.86a2.452,2.452,0,0,0,4.18,0Z" transform="translate(25.16 48) rotate(-90)"/></g></g></g></svg>