<svg xmlns="http://www.w3.org/2000/svg" xmlns:xlink="http://www.w3.org/1999/xlink" width="64" height="64" viewBox="0 0 64 64"><defs><style>.a{fill:#fff;}.b{clip-path:url(#a);}.c{fill:url(#b);}.d{fill:rgba(200,205,244,0.5);}.e{filter:url(#c);}</style><clipPath id="a"><rect class="a" width="64" height="64"/></clipPath><linearGradient id="b" x1="0.068" y1="0.305" x2="0.958" y2="0.22" gradientUnits="objectBoundingBox"><stop offset="0" stop-color="#3246d2"/><stop offset="1" stop-color="#818fed"/></linearGradient><filter id="c"><feOffset dx="0.2" dy="0.1" input="SourceAlpha"/><feGaussianBlur stdDeviation="0.5" result="d"/><feFlood flood-color="#fff" flood-opacity="0.6" result="e"/><feComposite operator="out" in="SourceGraphic" in2="d"/><feComposite operator="in" in="e"/><feComposite operator="in" in2="SourceGraphic"/></filter></defs><g class="b"><g transform="translate(12 14)"><path class="c" d="M9,27.68H32a7.882,7.882,0,0,0,1.56-15.63A6.07,6.07,0,0,0,34,9.89a5.973,5.973,0,0,0-6-5.94A5.787,5.787,0,0,0,24.63,5,9.981,9.981,0,0,0,6,9.89v.55A8.857,8.857,0,0,0,9,27.68Z"/><path class="d" d="M7.24,23.78a2,2,0,0,1-2-2V10.6H1A1,1,0,0,1,.3,8.89L8.99.29a1,1,0,0,1,1.4,0l8.69,8.6a1,1,0,0,1-.7,1.71H14.14V21.78a2,2,0,0,1-2,2Z" transform="translate(7.02 12.22)"/><g class="e" transform="matrix(1, 0, 0, 1, -12, -14)"><path class="a" d="M7.24,23.78a2,2,0,0,1-2-2V10.6H1A1,1,0,0,1,.3,8.89L8.99.29a1,1,0,0,1,1.4,0l8.69,8.6a1,1,0,0,1-.7,1.71H14.14V21.78a2,2,0,0,1-2,2Z" transform="translate(19.02 26.22)"/></g></g></g></svg>