<svg xmlns="http://www.w3.org/2000/svg" xmlns:xlink="http://www.w3.org/1999/xlink" width="64" height="64" viewBox="0 0 64 64"><defs><style>.a{fill:#fff;}.b{clip-path:url(#a);}.c{fill:url(#b);}.d{fill:rgba(200,205,244,0.5);}.e{filter:url(#c);}</style><clipPath id="a"><rect class="a" width="64" height="64"/></clipPath><linearGradient id="b" x1="0.068" y1="0.305" x2="0.958" y2="0.22" gradientUnits="objectBoundingBox"><stop offset="0" stop-color="#3246d2"/><stop offset="1" stop-color="#818fed"/></linearGradient><filter id="c"><feOffset dx="0.2" dy="0.1" input="SourceAlpha"/><feGaussianBlur stdDeviation="0.5" result="d"/><feFlood flood-color="#fff" flood-opacity="0.6" result="e"/><feComposite operator="out" in="SourceGraphic" in2="d"/><feComposite operator="in" in="e"/><feComposite operator="in" in2="SourceGraphic"/></filter></defs><g class="b"><g transform="translate(5 10)"><rect class="c" width="30" height="24" rx="4" transform="translate(12 18)"/><path class="d" d="M3,24.84h39.12a3,3,0,0,0,2.08-5.16L24.639.84a3,3,0,0,0-4.16,0L.919,19.68A3,3,0,0,0,3,24.84Z" transform="translate(4.441 1.16)"/><g class="e" transform="matrix(1, 0, 0, 1, -5, -10)"><path class="a" d="M3,24.84h39.12a3,3,0,0,0,2.08-5.16L24.639.84a3,3,0,0,0-4.16,0L.919,19.68A3,3,0,0,0,3,24.84Z" transform="translate(9.44 11.16)"/></g></g></g></svg>