<svg xmlns="http://www.w3.org/2000/svg" xmlns:xlink="http://www.w3.org/1999/xlink" width="16" height="16" viewBox="0 0 16 16"><defs><style>.a{fill:#202227;}.b{fill:none;}.c{clip-path:url(#a);}.d{fill:#222;}</style><clipPath id="a"><rect class="a" width="16" height="16"/></clipPath></defs><rect class="b" width="16" height="16"/><g class="c"><g transform="translate(-110.908 -63.744)"><path class="d" d="M119.742,64.231l5.24,3.033a1.672,1.672,0,0,1,.834,1.448v6.065a1.672,1.672,0,0,1-.834,1.448l-5.24,3.032a1.665,1.665,0,0,1-1.668,0l-5.24-3.032A1.672,1.672,0,0,1,112,74.777V68.712a1.672,1.672,0,0,1,.834-1.448l5.24-3.032a1.664,1.664,0,0,1,1.668,0Zm-1.152.9-5.24,3.032a.637.637,0,0,0-.318.552v6.065a.637.637,0,0,0,.318.552l5.24,3.032a.634.634,0,0,0,.636,0l5.24-3.032a.637.637,0,0,0,.318-.552V68.712a.637.637,0,0,0-.318-.552l-5.24-3.032a.634.634,0,0,0-.636,0Z" transform="translate(0 0)"/><path class="d" d="M323.43,386.253a.517.517,0,0,1,.517.9l-2.586,1.5v3.043a.516.516,0,1,1-1.032,0v-3.038l-2.585-1.5a.517.517,0,1,1,.517-.9l2.58,1.5,2.589-1.5Z" transform="translate(-201.938 -316.612)"/></g></g></svg>