<svg xmlns="http://www.w3.org/2000/svg" xmlns:xlink="http://www.w3.org/1999/xlink" width="16" height="16" viewBox="0 0 16 16"><defs><style>.a{fill:#202227;}.b,.d,.e{fill:none;}.c{clip-path:url(#a);}.d,.e{stroke:#222;}.e{stroke-linecap:round;stroke-linejoin:round;}</style><clipPath id="a"><rect class="a" width="16" height="16"/></clipPath></defs><rect class="b" width="16" height="16"/><g class="c"><g transform="translate(-3.159 -2.321)"><path class="d" d="M13.5,39.371a5.512,5.512,0,0,0,6.808,0" transform="translate(-5.745 -23.905)"/><path class="d" d="M10.89,9.747a5.518,5.518,0,0,0-3.6,7.052" transform="translate(-1.352 -3.884)"/><path class="d" d="M29,9.747A5.518,5.518,0,0,1,32.6,16.8" transform="translate(-16.22 -3.884)"/><path class="e" d="M36.242,32.621A1.622,1.622,0,1,1,34.621,31,1.615,1.615,0,0,1,36.242,32.621Z" transform="translate(-18.923 -18.247)"/><path class="e" d="M8.242,32.621A1.622,1.622,0,1,1,6.621,31,1.615,1.615,0,0,1,8.242,32.621Z" transform="translate(0 -18.247)"/><path class="e" d="M22.242,5.621A1.622,1.622,0,1,1,20.621,4,1.615,1.615,0,0,1,22.242,5.621Z" transform="translate(-9.462)"/></g></g></svg>