<svg xmlns="http://www.w3.org/2000/svg" xmlns:xlink="http://www.w3.org/1999/xlink" width="16" height="16" viewBox="0 0 16 16"><defs><style>.a{fill:#202227;}.b,.d,.e,.f{fill:none;}.c{clip-path:url(#a);}.d,.e,.f{stroke:#222;stroke-linejoin:round;}.d,.f{stroke-linecap:round;}.d{fill-rule:evenodd;}</style><clipPath id="a"><rect class="a" width="16" height="16"/></clipPath></defs><rect class="b" width="16" height="16"/><g class="c"><g transform="translate(-3.242 -3.242)"><path class="d" d="M11.242,18.484A7.242,7.242,0,1,0,4,11.242,7.242,7.242,0,0,0,11.242,18.484Z" transform="translate(0 0)"/><path class="e" d="M20.81,16.621A1.81,1.81,0,1,0,19,14.81,1.81,1.81,0,0,0,20.81,16.621Z" transform="translate(-9.569 -5.741)"/><path class="f" d="M10.022,32.379A3.621,3.621,0,0,1,13.635,29h2.9a3.621,3.621,0,0,1,3.612,3.372" transform="translate(-3.841 -15.948)"/></g></g></svg>