<svg xmlns="http://www.w3.org/2000/svg" xmlns:xlink="http://www.w3.org/1999/xlink" width="16" height="16" viewBox="0 0 16 16"><defs><style>.a{fill:#202227;}.b{fill:none;}.c{clip-path:url(#a);}.d{fill:#222;}</style><clipPath id="a"><rect class="a" width="16" height="16"/></clipPath></defs><rect class="b" width="16" height="16"/><g class="c"><g transform="translate(-95.247 -95.248)"><path class="d" d="M109.38,96a1.115,1.115,0,0,1,1.115,1.115v3.066H109.38V97.115H97.115V109.38h9.852l2.413-2.413V105.2H110.5v2.23l-3.066,3.066H97.115A1.115,1.115,0,0,1,96,109.38V97.115A1.115,1.115,0,0,1,97.115,96Z" transform="translate(0 0)"/><path class="d" d="M238.387,273.6l1.048.381-2.479,6.81-1.048-.381Zm-3.782,1.231.788.788-1.577,1.577,1.577,1.577-.788.788L232.24,277.2l.788-.788Zm6.133,0,1.577,1.577.788.788-2.365,2.365-.788-.788,1.577-1.577-1.577-1.577Z" transform="translate(-133.866 -174.506)"/></g></g></svg>