<svg xmlns="http://www.w3.org/2000/svg" xmlns:xlink="http://www.w3.org/1999/xlink" width="16" height="16" viewBox="0 0 16 16"><defs><style>.a{fill:#202227;}.b{fill:none;}.c{clip-path:url(#a);}.d{fill:#222;}</style><clipPath id="a"><rect class="a" width="16" height="16"/></clipPath></defs><rect class="b" width="16" height="16"/><g class="c"><g transform="translate(-63.564 -63.563)"><path class="d" d="M576.163,644.42a.251.251,0,0,1,.25.246v.583a.251.251,0,0,1-.25.249h-6.087a.253.253,0,0,1-.252-.247v-.585a.25.25,0,0,1,.252-.247h6.087Zm0-2.162a.251.251,0,0,1,.25.246v.583a.251.251,0,0,1-.25.249h-6.087a.253.253,0,0,1-.252-.247V642.5a.25.25,0,0,1,.252-.246Zm0-2.162a.251.251,0,0,1,.25.247v.585a.249.249,0,0,1-.25.247h-6.087a.253.253,0,0,1-.252-.247v-.584a.25.25,0,0,1,.252-.247h6.087Z" transform="translate(-497.284 -566.37)"/><path class="d" d="M72.755,64a.931.931,0,0,1,.94.882l.153,1.11a6.145,6.145,0,0,1,1.3.733L76.2,66.3a.955.955,0,0,1,1.246.361L78.754,68.9a.917.917,0,0,1-.3,1.245l-.9.684a5.683,5.683,0,0,1,0,1.469l.454.346H76.364l.039-.208a4.666,4.666,0,0,0,0-1.749l-.06-.325,1.372-1.045-1.173-2-1.589.671-.26-.219a5.007,5.007,0,0,0-1.54-.871l-.316-.114L72.6,65.1H70.281l-.234,1.691-.316.114a5.038,5.038,0,0,0-1.542.873l-.258.215-1.6-.647-1.161,1.974L66.54,70.36l-.06.327a4.878,4.878,0,0,0-.084.873,5.071,5.071,0,0,0,.082.875l.058.327-1.37,1.045,1.178,2,1.586-.671.262.217a5.007,5.007,0,0,0,1.54.871l.316.114.234,1.691h.9v0a.262.262,0,0,1,.267.262v.576a.266.266,0,0,1-.265.262H70.13a.934.934,0,0,1-.942-.882l-.153-1.11a6.215,6.215,0,0,1-1.293-.733l-1.05.422a.952.952,0,0,1-1.248-.36l-1.318-2.237a.917.917,0,0,1,.306-1.245l.9-.686a5.522,5.522,0,0,1,0-1.469l-.9-.686a.918.918,0,0,1-.308-1.239l1.316-2.241a.952.952,0,0,1,1.246-.363l1.052.422a6.051,6.051,0,0,1,1.293-.733l.153-1.108a.932.932,0,0,1,.94-.884h2.629Zm-1.314,4.4a3.2,3.2,0,0,1,3.216,3.166,3.093,3.093,0,0,1-.193,1.082H73.228a2.017,2.017,0,0,0,.314-1.082,2.1,2.1,0,1,0-2.1,2.069v1.1a3.166,3.166,0,1,1,0-6.331Z" transform="translate(0 0)"/></g></g></svg>