<svg xmlns="http://www.w3.org/2000/svg" xmlns:xlink="http://www.w3.org/1999/xlink" width="16" height="16" viewBox="0 0 16 16"><defs><style>.a{fill:#202227;}.b{fill:#333;}.c,.f{fill:none;}.d{clip-path:url(#a);}.e{clip-path:url(#b);}.f{stroke:#333;stroke-linecap:round;stroke-linejoin:round;}</style><clipPath id="a"><rect class="a" width="16" height="16"/></clipPath><clipPath id="b"><rect class="b" width="14" height="14" transform="translate(0 0.309)"/></clipPath></defs><rect class="c" width="16" height="16"/><g class="d"><g class="e" transform="translate(1 0.691)"><ellipse class="f" cx="6" cy="2" rx="6" ry="2" transform="translate(1 1.309)"/><path class="f" d="M6.018,15.5C4.781,15.8,4,16.241,4,16.731c0,.907,2.669,1.642,5.962,1.642s5.962-.735,5.962-1.642c0-.49-.781-.93-2.018-1.231" transform="translate(-2.808 -10.622)"/><path class="f" d="M6.018,24.5C4.781,24.815,4,25.276,4,25.789c0,.949,2.669,1.719,5.962,1.719s5.962-.77,5.962-1.719c0-.513-.781-.974-2.018-1.289" transform="translate(-2.808 -17.075)"/><path class="f" d="M6.018,33.5C4.781,33.828,4,34.307,4,34.841c0,.988,2.669,1.789,5.962,1.789s5.962-.8,5.962-1.789c0-.534-.781-1.014-2.018-1.341a15.945,15.945,0,0,1-3.944.447A15.945,15.945,0,0,1,6.018,33.5Z" transform="translate(-2.808 -23.513)"/></g></g></svg>