<svg xmlns="http://www.w3.org/2000/svg" xmlns:xlink="http://www.w3.org/1999/xlink" width="16" height="16.5" viewBox="0 0 16 16.5"><defs><style>.a{fill:#202227;}.b,.d,.e{fill:none;}.c{clip-path:url(#a);}.d,.e{stroke:#222;stroke-linejoin:round;}.e{stroke-linecap:round;}.f{fill:#222;fill-rule:evenodd;}</style><clipPath id="a"><rect class="a" width="16" height="16" transform="translate(0 0.5)"/></clipPath></defs><rect class="b" width="16" height="16"/><g class="c"><g transform="translate(-5.664 -2.771)"><rect class="d" width="11" height="14" rx="1" transform="translate(8.164 4.271)"/><path class="e" d="M21,14h4.292" transform="translate(-8.341 -6.416)"/><path class="e" d="M21,24h4.292" transform="translate(-8.341 -12.839)"/><path class="e" d="M21,34h4.292" transform="translate(-8.341 -19.263)"/><path class="f" d="M13.715,13.431A.715.715,0,1,0,13,12.715.715.715,0,0,0,13.715,13.431Z" transform="translate(-3.202 -5.131)"/><path class="f" d="M13.715,23.431A.715.715,0,1,0,13,22.715.715.715,0,0,0,13.715,23.431Z" transform="translate(-3.202 -11.555)"/><path class="f" d="M13.715,33.431A.715.715,0,1,0,13,32.715.715.715,0,0,0,13.715,33.431Z" transform="translate(-3.202 -17.978)"/></g></g></svg>