<svg xmlns="http://www.w3.org/2000/svg" xmlns:xlink="http://www.w3.org/1999/xlink" width="16" height="16" viewBox="0 0 16 16"><defs><style>.a{fill:#202227;}.b,.d{fill:none;}.c{clip-path:url(#a);}.d{stroke:#222;stroke-linecap:round;stroke-linejoin:round;}</style><clipPath id="a"><rect class="a" width="16" height="16"/></clipPath></defs><rect class="b" width="16" height="16"/><g class="c"><g transform="translate(-4.457 -4.417)"><path class="d" d="M19.511,11.022A2.511,2.511,0,1,0,17,8.511,2.511,2.511,0,0,0,19.511,11.022Z" transform="translate(-7.054)"/><path class="d" d="M6,32.591v.43H18.914v-.43a7.13,7.13,0,0,0-.313-3.025,2.87,2.87,0,0,0-1.254-1.254A7.13,7.13,0,0,0,14.322,28H10.591a7.13,7.13,0,0,0-3.025.313,2.87,2.87,0,0,0-1.254,1.254A7.129,7.129,0,0,0,6,32.591Z" transform="translate(0 -14.108)"/></g></g></svg>