<svg xmlns="http://www.w3.org/2000/svg" xmlns:xlink="http://www.w3.org/1999/xlink" width="16" height="16" viewBox="0 0 16 16"><defs><style>.a{fill:#202227;}.b,.d,.e{fill:none;}.c{clip-path:url(#a);}.d,.e{stroke:#333;stroke-linecap:round;}.d{stroke-linejoin:round;}</style><clipPath id="a"><rect class="a" width="16" height="16"/></clipPath></defs><rect class="b" width="16" height="16"/><g class="c"><g transform="translate(-2.76 -7.07)"><path class="d" d="M9.408,10H4.676A.676.676,0,0,0,4,10.676v8.788a.676.676,0,0,0,.676.676H16.844a.676.676,0,0,0,.676-.676v-.845"/><path class="e" d="M10,23h2.7" transform="translate(-3.972 -8.606)"/><path class="e" d="M10,31h8.112" transform="translate(-3.972 -13.902)"/><circle class="d" cx="2" cy="2" r="2" transform="translate(12 10)"/><path class="d" d="M32.051,24.169A3.957,3.957,0,0,0,28.671,22a3.545,3.545,0,0,0-2.721,1.014" transform="translate(-14.531 -7.944)"/></g></g></svg>