<svg xmlns="http://www.w3.org/2000/svg" xmlns:xlink="http://www.w3.org/1999/xlink" width="24" height="24" viewBox="0 0 24 24"><defs><style>.a{fill:#fff;}.b{clip-path:url(#a);}.c,.d{fill:none;}.d{stroke:#fff;stroke-linecap:round;stroke-linejoin:round;stroke-width:1.5px;}</style><clipPath id="a"><rect class="a" width="24" height="24" transform="translate(1488 19)"/></clipPath></defs><g class="b" transform="translate(-1488 -19)"><g transform="translate(1485.188 16.188)"><path class="c" d="M17.568,4A7.568,7.568,0,0,0,10,11.568V22.38H25.136V11.568A7.568,7.568,0,0,0,17.568,4Z" transform="translate(-2.757)"/><path class="d" d="M7.243,22.38V11.568a7.568,7.568,0,1,1,15.136,0V22.38M4,22.38H25.623"/><path class="d" d="M21.7,41.243a2.7,2.7,0,0,0,2.7-2.7V38H19v.541A2.7,2.7,0,0,0,21.7,41.243Z" transform="translate(-6.891 -15.62)"/></g></g></svg>