<svg xmlns="http://www.w3.org/2000/svg" xmlns:xlink="http://www.w3.org/1999/xlink" width="24" height="24" viewBox="0 0 24 24"><defs><style>.a{fill:#fff;}.b{clip-path:url(#a);}</style><clipPath id="a"><rect class="a" width="24" height="24" transform="translate(20 19)"/></clipPath></defs><g class="b" transform="translate(-20 -19)"><path class="a" d="M86.166,88.316h-6a2.158,2.158,0,0,1-2.15-2.15v-6a2.158,2.158,0,0,1,2.15-2.15h6a2.158,2.158,0,0,1,2.15,2.15v6A2.158,2.158,0,0,1,86.166,88.316Zm-6-8.478a.336.336,0,0,0-.333.333v6a.336.336,0,0,0,.333.333h6a.336.336,0,0,0,.333-.333v-6a.336.336,0,0,0-.333-.333Zm6.207,21.407h-6a2.158,2.158,0,0,1-2.15-2.15v-6a2.158,2.158,0,0,1,2.15-2.15h6a2.158,2.158,0,0,1,2.15,2.15v6A2.158,2.158,0,0,1,86.378,101.245Zm-6-8.478a.336.336,0,0,0-.333.333v6a.336.336,0,0,0,.333.333h6a.336.336,0,0,0,.333-.333v-6a.336.336,0,0,0-.333-.333Zm20.059-11.612H91.813a.908.908,0,1,1,0-1.817h8.629a.908.908,0,1,1,0,1.817Zm0,5.844H91.813a.908.908,0,1,1,0-1.817h8.629a.908.908,0,1,1,0,1.817Zm0,7.161H91.813a.908.908,0,0,1,0-1.817h8.629a.908.908,0,0,1,0,1.817Zm0,5.859H91.813a.908.908,0,0,1,0-1.817h8.629a.908.908,0,1,1,0,1.817Z" transform="translate(-57.686 -58.633)"/></g></svg>