<svg xmlns="http://www.w3.org/2000/svg" width="79.902" height="26.827" viewBox="0 0 79.902 26.827"><defs><style>.a,.b{fill:#fff;}.b{stroke:#246fdd;stroke-width:0.097px;}</style></defs><g transform="translate(-53.457 -36.822)"><g transform="translate(53.457 36.822)"><path class="a" d="M139.1,64.393s5.179-5.662,11.726-4.7a11.693,11.693,0,0,1,8.211,4.8h-3.22a11.59,11.59,0,0,0-5.689-2.6C147.15,61.522,144.708,61.656,139.1,64.393Z" transform="translate(-116.119 -53.478)"/><path class="a" d="M107.721,43.471A9.557,9.557,0,0,0,99.832,37C93.338,35.93,87.354,39.687,82.9,46.1l5.393-.966s4.615-6.977,11.27-5.8c3.837.7,5.9,2.415,6.681,4.427Z" transform="translate(-74.999 -36.822)"/><path class="a" d="M65.919,72.5s-11.163,1.851-12.343,9.15c-.993,6.037,4.454,8.1,8,8.1h26.94l.3-1.368s-17.066.08-24.23,0c-3.81-.054-6.735-1.207-6.735-5.393,0-3.6,3.086-6.333,6.95-7.647Z" transform="translate(-53.457 -62.926)"/></g><g transform="translate(65.329 50.823)"><path class="b" d="M102.932,99.411H97.7l.456-1.851h4.749a3.978,3.978,0,0,0,1.556-.215h0a1.394,1.394,0,0,0,.778-.993h0a.885.885,0,0,0-.376-1.1h0a2.123,2.123,0,0,0-1.1-.215h-1.932a3.349,3.349,0,0,1-2.388-.644h0a2.16,2.16,0,0,1-.51-1.02,3.157,3.157,0,0,1,.054-1.315h0a4.494,4.494,0,0,1,1.127-1.986h0a3.535,3.535,0,0,1,2.254-1.02h0c.322-.027.778-.054,1.4-.054h5.152l-.4,1.878h-4.642a7.691,7.691,0,0,0-1.4.08h0a1.3,1.3,0,0,0-.966,1.073h0c-.134.51,0,.832.349.993h0a2.8,2.8,0,0,0,1.261.188h1.637a5.954,5.954,0,0,1,1.851.215h0a1.715,1.715,0,0,1,1.207,1.315h0a3.325,3.325,0,0,1-.08,1.61h0a4.211,4.211,0,0,1-.859,1.69h0a3.6,3.6,0,0,1-2.147,1.288h0a14.975,14.975,0,0,1-1.8.08Z" transform="translate(-97.7 -89)"/><path class="b" d="M142.484,89.027h2.2l-1.556,6.225a3.512,3.512,0,0,0-.161,1.154,1.444,1.444,0,0,0,.242.7h0a1.962,1.962,0,0,0,1.664.644h0a3.2,3.2,0,0,0,1.368-.268,2.114,2.114,0,0,0,.939-.7h0a4.711,4.711,0,0,0,.617-1.556h0L149.353,89h2.2l-1.529,6.118a9.065,9.065,0,0,1-.751,2.012,3.9,3.9,0,0,1-1.1,1.261h0a6.22,6.22,0,0,1-3.757,1.073h0c-1.61,0-2.683-.349-3.247-1.046h0a2.149,2.149,0,0,1-.483-1.234,6.479,6.479,0,0,1,.268-1.905h0Z" transform="translate(-129.148 -89)"/><path class="b" d="M185.655,95.862h-3.542l-.912,3.622H179L181.576,89.1h5.206a6.607,6.607,0,0,1,1.986.215h0a2,2,0,0,1,1.261,1.422h0a3.3,3.3,0,0,1,0,1.771h0a4.7,4.7,0,0,1-.671,1.5,4.122,4.122,0,0,1-1.1,1.154h0a3.7,3.7,0,0,1-1.127.563,5.633,5.633,0,0,1-1.476.134Zm-2.334-4.91-.751,3.059h3.005a2.4,2.4,0,0,0,1.207-.242h0a2.309,2.309,0,0,0,.832-1.368h0c.161-.7.054-1.154-.4-1.342h0a1.983,1.983,0,0,0-.8-.107H183.32Z" transform="translate(-157.185 -89.073)"/><path class="b" d="M221,99.484h-2.2L221.376,89.1h2.2Z" transform="translate(-186.305 -89.073)"/><path class="b" d="M242.739,89.1h3.73l-.456,1.851h-2.9a6.228,6.228,0,0,0-1.664.161,2.275,2.275,0,0,0-1.02.617h0a2.428,2.428,0,0,0-.483.617,8.781,8.781,0,0,0-.4,1.046h5.85l-.456,1.851h-5.85a2.121,2.121,0,0,0,.322,1.851,3.161,3.161,0,0,0,2.147.51h2.764l-.456,1.851h-2.9a14.265,14.265,0,0,1-2.012-.134h0a2.665,2.665,0,0,1-1.932-1.234h0a5.248,5.248,0,0,1-.215-3.864h0a7.174,7.174,0,0,1,2.71-4.213h0a4.643,4.643,0,0,1,1.4-.724,8.479,8.479,0,0,1,1.825-.188Z" transform="translate(-199.296 -89.073)"/><path class="b" d="M270.3,99.484,272.876,89.1h4.4a7.1,7.1,0,0,1,2.469.322h0a2.487,2.487,0,0,1,1.664,2.227h0a7.674,7.674,0,0,1-.242,2.656h0a10.409,10.409,0,0,1-1.073,2.656h0a4.682,4.682,0,0,1-1.8,1.878h0a4.766,4.766,0,0,1-1.422.51,14.393,14.393,0,0,1-2.2.134H270.3Zm6.52-8.533h-2.2l-1.664,6.681h2.2a3.187,3.187,0,0,0,2.173-.644h0a4.385,4.385,0,0,0,.832-1.127,6.42,6.42,0,0,0,.59-1.556h0a4.746,4.746,0,0,0,.161-1.69,1.812,1.812,0,0,0-.376-1.127h0a2.183,2.183,0,0,0-1.717-.537Z" transform="translate(-223.986 -89.073)"/><path class="b" d="M317.181,99.484l2.12-8.533H316l.456-1.851h8.935l-.456,1.851H321.5l-2.12,8.533Z" transform="translate(-257.423 -89.073)"/></g></g></svg>