<svg xmlns="http://www.w3.org/2000/svg" xmlns:xlink="http://www.w3.org/1999/xlink" width="32" height="32" viewBox="0 0 32 32"><defs><style>.a{fill:none;}.b{fill:#6899f8;}.c{clip-path:url(#a);}.d{fill:#f6beb3;}.e{fill:#3463ff;}.f{fill:#ce7d9f;}.g{fill:#0a0a0a;}</style><clipPath id="a"><path class="a" d="M15.762,0A15.762,15.762,0,1,0,31.524,15.762,15.768,15.768,0,0,0,15.762,0Z"/></clipPath></defs><g transform="translate(-1529.214 -16.524)"><path class="b" d="M15.762,0A15.762,15.762,0,1,0,31.524,15.762,15.768,15.768,0,0,0,15.762,0Z" transform="translate(1529.214 17)"/><g transform="translate(1529.214 17)"><rect class="a" width="32" height="32" transform="translate(0 -0.476)"/><path class="a" d="M15.762,0A15.762,15.762,0,1,0,31.524,15.762,15.768,15.768,0,0,0,15.762,0Z"/><g class="c"><g transform="translate(0.962 5.644)"><rect class="a" width="29.601" height="26.759"/><rect class="a" width="29.601" height="26.759"/><rect class="a" width="29.601" height="26.759"/><path class="d" d="M5.275,4.245,4.7,7.934,0,10.981l3.247,2.732,10.939-4-3.919-3.6L9.867,0Z" transform="translate(8.876 8.135)"/><path class="e" d="M29.6,11.713V7.825S20.942-.266,20.417.007s-2.028,3.667-2.385,3.94a15.076,15.076,0,0,1-6.021,0C10.7,3.432,13.66.974,13.66.974S12.063.532,7.839,3.38,0,11.713,0,11.713Z" transform="translate(0 15.044)"/><path class="f" d="M5.086,0,.578,3.51,0,7.6,4.329,3.51Z" transform="translate(13.606 8.422)"/><path class="d" d="M8.082,8.081,9.994,2.858,6.348,0,0,4.119s-.158,5.706,3.173,7.293S8.082,8.081,8.082,8.081Z" transform="translate(10.161 1.269)"/><path class="g" d="M12.493,5.589c.158-1.482.263-2.806-.8-3.436S9.793.566,9.215.3A15.677,15.677,0,0,0,3.1.3C1.407.829.913,1.68.073,3.372c-.42,1.587,1.082,3.373,1.86,3.962s1.03.83,2.564.389S6.535,5.694,7.061,5.011,8.542,3.424,8.8,4.16s-.368,1.692.683,2.007c.326.095.5-.567.946-.578.588.042.231.9.231.9l-.231,2.27S12.325,7.07,12.493,5.589Z" transform="translate(8.137 0.001)"/></g></g></g></g></svg>