<svg xmlns="http://www.w3.org/2000/svg" xmlns:xlink="http://www.w3.org/1999/xlink" width="16" height="16" viewBox="0 0 16 16"><defs><style>.a{fill:#fff;}.b{clip-path:url(#a);}.c,.d{fill:none;stroke:#fff;stroke-linecap:round;stroke-linejoin:round;stroke-width:0.5px;}.c{fill-rule:evenodd;}</style><clipPath id="a"><rect class="a" width="16" height="16" transform="translate(260 25)"/></clipPath></defs><g class="b" transform="translate(-260 -25)"><g transform="translate(258 23)"><path class="c" d="M10.271,16.543A6.271,6.271,0,1,0,4,10.271,6.271,6.271,0,0,0,10.271,16.543Z"/><path class="d" d="M4,24H16.543" transform="translate(0 -13.729)"/><path class="c" d="M18.509,16.543c1.385,0,2.509-2.808,2.509-6.271S19.894,4,18.509,4,16,6.808,16,10.271,17.123,16.543,18.509,16.543Z" transform="translate(-8.237)"/><path class="d" d="M9.858,10.142a6.271,6.271,0,0,0,8.869,0" transform="translate(-4.021 -4.216)"/><path class="d" d="M18.727,33.837a6.271,6.271,0,0,0-8.869,0" transform="translate(-4.021 -19.22)"/></g></g></svg>