<svg xmlns="http://www.w3.org/2000/svg" xmlns:xlink="http://www.w3.org/1999/xlink" width="20" height="20" viewBox="0 0 20 20"><defs><style>.a,.e{fill:#fff;}.b{clip-path:url(#a);}.c{fill:none;}.d{fill:url(#b);}.e{opacity:0.6;}</style><clipPath id="a"><rect class="a" width="20" height="20" transform="translate(954 395.001)"/></clipPath><linearGradient id="b" x1="1.139" y1="1.788" x2="-1.177" y2="-1.802" gradientUnits="objectBoundingBox"><stop offset="0" stop-color="#ff9e07"/><stop offset="1" stop-color="#ffc86f"/></linearGradient></defs><g class="b" transform="translate(-954 -395.001)"><g transform="translate(954 395.612)"><rect class="c" width="20.001" height="18.776" transform="translate(0 0)"/><path class="d" d="M6.569,5.907a1.123,1.123,0,0,0-.1-1.584L1.862.278A1.122,1.122,0,1,0,.382,1.964l4.6,4.046a1.122,1.122,0,0,0,1.584-.1Z" transform="translate(13.153 12.314)"/><path class="d" d="M9.388,0a9.388,9.388,0,1,0,9.388,9.388A9.389,9.389,0,0,0,9.388,0Z"/><g transform="translate(2.819 3.017)"><rect class="c" width="13.155" height="13.158"/><path class="a" d="M9.577.329A1.121,1.121,0,0,0,7.992,1.915,4.3,4.3,0,0,1,1.915,7.992,1.122,1.122,0,0,0,.329,9.578,6.54,6.54,0,1,0,9.577.329Z" transform="translate(1.665 1.665)"/><path class="e" d="M3.5,11.165a1.122,1.122,0,0,0,0-1.587A4.3,4.3,0,0,1,9.578,3.5a1.122,1.122,0,0,0,1.587-1.587,6.54,6.54,0,0,0-9.25,9.25,1.123,1.123,0,0,0,1.587,0Z"/></g></g></g></svg>