<svg xmlns="http://www.w3.org/2000/svg" xmlns:xlink="http://www.w3.org/1999/xlink" width="20" height="20" viewBox="0 0 20 20"><defs><style>.a,.e{fill:#fff;}.b{clip-path:url(#a);}.c{fill:none;}.d{fill:url(#b);}.e{opacity:0.6;}</style><clipPath id="a"><rect class="a" width="20" height="20" transform="translate(517 292)"/></clipPath><linearGradient id="b" x1="0.211" y1="0.111" x2="0.819" y2="0.908" gradientUnits="objectBoundingBox"><stop offset="0" stop-color="#87c5fa"/><stop offset="1" stop-color="#53b0ff"/></linearGradient></defs><g class="b" transform="translate(-517 -292)"><g transform="translate(517 292.103)"><rect class="c" width="19.728" height="19.624"/><rect class="d" width="19.728" height="19.624" rx="9.812"/><path class="e" d="M.333,4.673l1.2,1.169a.811.811,0,0,1,.234.72L1.483,8.213A1.1,1.1,0,0,0,3.076,9.371l1.484-.78a.818.818,0,0,1,.756,0l1.484.78A1.1,1.1,0,0,0,8.393,8.213L8.109,6.562a.819.819,0,0,1,.234-.72l1.2-1.169A1.1,1.1,0,0,0,8.934,2.8L7.277,2.559a.813.813,0,0,1-.613-.445L5.922.612a1.1,1.1,0,0,0-1.97,0l-.74,1.5a.818.818,0,0,1-.613.445L.941,2.8A1.1,1.1,0,0,0,.333,4.673Z" transform="translate(4.926 4.883)"/><path class="a" d="M1.161,0A1.161,1.161,0,1,0,2.323,1.161,1.16,1.16,0,0,0,1.161,0Z" transform="translate(8.71 4.82)"/></g></g></svg>