<svg xmlns="http://www.w3.org/2000/svg" xmlns:xlink="http://www.w3.org/1999/xlink" width="20" height="20" viewBox="0 0 20 20"><defs><style>.a,.e,.f{fill:#fff;}.b{clip-path:url(#a);}.c{fill:none;}.d{fill:url(#b);}.e{opacity:0.6;}.f{opacity:0.4;}</style><clipPath id="a"><rect class="a" width="20" height="20" rx="3" transform="translate(954 291.758)"/></clipPath><linearGradient id="b" x1="0.114" x2="1" y2="1" gradientUnits="objectBoundingBox"><stop offset="0" stop-color="#64c37d"/><stop offset="1" stop-color="#15ac4f"/></linearGradient></defs><g class="b" transform="translate(-954 -291.758)"><g transform="translate(955.111 292.868)"><rect class="c" width="18" height="18" transform="translate(-0.111 -0.11)"/><rect class="d" width="18" height="18" rx="3" transform="translate(-0.111 -0.11)"/><path class="e" d="M2.167,6.744V1.084A1.084,1.084,0,1,0,0,1.084v5.66a1.084,1.084,0,1,0,2.167,0Z" transform="translate(3.898 6.21)"/><path class="f" d="M2.167,4.874V1.084A1.084,1.084,0,1,0,0,1.084v3.79a1.084,1.084,0,1,0,2.167,0Z" transform="translate(12.691 8.08)"/><path class="a" d="M2.167,9.86V1.084A1.084,1.084,0,1,0,0,1.084V9.86a1.084,1.084,0,1,0,2.167,0Z" transform="translate(8.295 3.094)"/></g></g></svg>