<svg xmlns="http://www.w3.org/2000/svg" xmlns:xlink="http://www.w3.org/1999/xlink" width="16" height="16" viewBox="0 0 16 16"><defs><style>.a{fill:#fff;}.b{clip-path:url(#a);}.c{fill:#222;}</style><clipPath id="a"><rect class="a" width="16" height="16" transform="translate(0.407)"/></clipPath></defs><g class="b" transform="translate(-0.407)"><path class="c" d="M168,160a8,8,0,0,1,0,16h-5.818A2.182,2.182,0,0,1,160,173.818V168A8,8,0,0,1,168,160Zm0,1.455A6.545,6.545,0,0,0,161.455,168v5.818a.727.727,0,0,0,.727.727H168a6.545,6.545,0,1,0,0-13.091Zm-3.636,5.455A1.091,1.091,0,1,1,163.273,168,1.091,1.091,0,0,1,164.364,166.909Zm3.636,0A1.091,1.091,0,1,1,166.909,168,1.091,1.091,0,0,1,168,166.909Zm3.636,0A1.091,1.091,0,1,1,170.545,168,1.091,1.091,0,0,1,171.636,166.909Z" transform="translate(-159.593 -160)"/></g></svg>