<svg xmlns="http://www.w3.org/2000/svg" xmlns:xlink="http://www.w3.org/1999/xlink" width="20" height="20" viewBox="0 0 20 20"><defs><style>.a,.e{fill:#fff;}.b{clip-path:url(#a);}.c{fill:none;}.d{fill:url(#b);}.e{opacity:0.6;}</style><clipPath id="a"><rect class="a" width="20" height="20" transform="translate(519 395.155)"/></clipPath><linearGradient id="b" y1="0.5" x2="1" y2="0.5" gradientUnits="objectBoundingBox"><stop offset="0" stop-color="#bc8bff"/><stop offset="1" stop-color="#7632d2"/></linearGradient></defs><g class="b" transform="translate(-519 -395.155)"><g transform="translate(519.267 396.103)"><rect class="c" width="19.467" height="18.105"/><path class="d" d="M19.466,9.721V8.384A8.383,8.383,0,0,0,11.084,0h-2.7A8.383,8.383,0,0,0,0,8.384v7.074A2.647,2.647,0,0,0,2.647,18.1h8.437A8.383,8.383,0,0,0,19.466,9.721Z"/><path class="a" d="M11.1,1.059A1.059,1.059,0,0,0,10.044,0H1.059a1.059,1.059,0,1,0,0,2.118h8.984A1.058,1.058,0,0,0,11.1,1.059Z" transform="translate(4.271 5.709)"/><path class="e" d="M6.964,1.059A1.059,1.059,0,0,0,5.906,0H1.059a1.059,1.059,0,1,0,0,2.118H5.906A1.058,1.058,0,0,0,6.964,1.059Z" transform="translate(4.472 10.344)"/></g></g></svg>