<svg xmlns="http://www.w3.org/2000/svg" xmlns:xlink="http://www.w3.org/1999/xlink" width="24" height="24" viewBox="0 0 24 24"><defs><style>.a{fill:#fff;}.b{clip-path:url(#a);}</style><clipPath id="a"><rect class="a" width="24" height="24" transform="translate(1323 1002)"/></clipPath></defs><g class="b" transform="translate(-1323 -1002)"><path class="a" d="M20.074,7.137s1.727-.673,1.583.962c-.048.673-.48,3.03-.815,5.579l-1.151,7.551s-.1,1.106-.959,1.3a3.821,3.821,0,0,1-2.4-.866c-.192-.144-3.6-2.308-4.8-3.366a.913.913,0,0,1,.048-1.539l5.036-4.809c.576-.577,1.151-1.924-1.247-.289L8.659,16.227a2.812,2.812,0,0,1-2.206.048l-3.118-.962s-1.151-.721.815-1.443C8.947,11.61,14.846,9.3,20.074,7.137Z" transform="translate(1322.667 999.223)"/></g></svg>