<svg xmlns="http://www.w3.org/2000/svg" xmlns:xlink="http://www.w3.org/1999/xlink" width="38" height="38" viewBox="0 0 38 38"><defs><style>.a{fill:#c8d5f5;}.b{clip-path:url(#a);}.c{fill:#fff;}</style><clipPath id="a"><rect class="a" width="38" height="38" rx="19" transform="translate(0 -0.326)"/></clipPath></defs><g transform="translate(-1458 -11.674)"><rect class="a" width="38" height="38" rx="19" transform="translate(1458 11.674)"/><g class="b" transform="translate(1458 12)"><path class="c" d="M186.027,234.919a.633.633,0,0,0,.641.621h29.424a.631.631,0,0,0,.639-.623v-.74a4.677,4.677,0,0,0-.692-2.574,6.056,6.056,0,0,0-2-2,11.059,11.059,0,0,0-3.981-1.432,23.2,23.2,0,0,1-2.427-.473c-2.127-.543-2.312-1.023-2.314-1.027a.614.614,0,0,0-.054-.137,5.433,5.433,0,0,1,.02-1.331,7.771,7.771,0,0,1,2.433-4.745,11.692,11.692,0,0,0,.835-.989,6.236,6.236,0,0,0,1.074-3.034,1.617,1.617,0,0,0-.07-.507,1.556,1.556,0,0,0-.408-.623q-.048-.047-.092-.1c-.01-.012-.036-.04-.012-.2.087-.569.141-1.046.165-1.5a14.165,14.165,0,0,0-.131-3.2,4.857,4.857,0,0,0-.139-.668,5.244,5.244,0,0,0-1.066-2.077c-.086-.092-2.146-2.262-8.124-2.707a19.476,19.476,0,0,0-2.447.012,3.55,3.55,0,0,0-.708.088,1,1,0,0,0-.824.768,1.323,1.323,0,0,0,.137.832.178.178,0,0,1,0,.147,2.81,2.81,0,0,1-.579.593,4.87,4.87,0,0,0-1.645,3.036,15.158,15.158,0,0,0,.056,4.665.434.434,0,0,1,0,.267,1.443,1.443,0,0,0-.6,1.2,6.248,6.248,0,0,0,1.076,3,11,11,0,0,0,.832.987,7.772,7.772,0,0,1,2.433,4.745,5.331,5.331,0,0,1,.02,1.333.613.613,0,0,0-.052.137s-.187.483-2.3,1.025a24.045,24.045,0,0,1-2.461.479,10.643,10.643,0,0,0-3.927,1.389,6.07,6.07,0,0,0-2,2,4.842,4.842,0,0,0-.718,2.6v.748Z" transform="translate(-182.544 -197.867)"/></g></g></svg>